<?xml version="1.0" encoding="UTF-8" standalone="no"?>
<svg
   xmlns:dc="http://purl.org/dc/elements/1.1/"
   xmlns:cc="http://creativecommons.org/ns#"
   xmlns:rdf="http://www.w3.org/1999/02/22-rdf-syntax-ns#"
   xmlns:svg="http://www.w3.org/2000/svg"
   xmlns="http://www.w3.org/2000/svg"
   id="svg8"
   version="1.1"
   viewBox="0 0 87.421159 86.472443"
   height="86.472443mm"
   width="87.421158mm"
   >
   <defs>
	<style><![CDATA[
		.sprite { display: none; }
		.sprite:target { display: inline; }
	]]></style>
   </defs>
    <g class="sprite" id="path3709" transform="translate(-3.433226e-8,-210.52757)">
      <path 
      d="m 11.830756,232.15663 c 1.083733,-1.35467 2.167466,-2.79965 3.160889,-4.42525 h 2.799644 v 3.16089 1.26436 z m 48.677689,36.12444 v 3.07058 H 25.738667 v -3.07058 z m -34.769778,15.62382 v -3.2512 h 34.769778 v 3.2512 z m 18.242844,-34.67946 c -1.986844,-1.26436 -8.398933,-4.78649 -12.643555,-6.95396 H 43.0784 V 232.15663 H 30.163911 v -1.08374 -3.34151 H 41.001245 V 217.70685 H 19.778133 c 0.632178,-1.53529 1.083734,-3.16089 1.535289,-4.78649 L 9.7536001,210.57227 C 8.1280001,217.25529 4.6961778,223.848 3.4332275e-8,228.00231 1.8965334,228.90543 4.9671112,230.62134 7.4055112,232.15663 H 1.1740445 v 10.11484 H 14.720711 C 12.282311,246.06454 7.8570667,249.76729 3.4332275e-8,252.74756 2.8899556,254.82471 6.5927112,258.7984 8.3086223,261.41743 c 1.6256,-0.72249 3.1608887,-1.53529 4.5155557,-2.34809 V 297 h 12.914489 v -2.79964 H 60.508445 V 297 H 74.055111 V 258.07591 H 14.449778 c 4.244622,-2.70933 7.405511,-5.6896 9.7536,-8.76017 3.702755,2.61902 7.857067,5.87022 10.385778,8.03769 z m 24.835556,-7.13458 H 57.889422 V 228.99574 H 68.817067 Z M 45.697422,217.52623 v 36.12444 h 36.124445 v -36.12444 z" />
    </g>
    <g class="sprite" id="path3711" transform="translate(-3.433226e-8,-210.52757)">
      <path d="m 59.785952,230.44072 h -10.65671 c -0.18062,-1.17405 -0.63217,-2.79965 -1.17404,-4.24463 h 12.37262 c -0.45155,1.35467 -1.08373,2.79965 -1.53529,4.064 z m -32.42169,0 v 10.11484 h 54.09636 v -10.11484 h -10.65671 l 2.4384,-4.24463 h 6.5024 v -10.11484 h -19.32658 v -4.96711 h -12.73386 v 4.96711 h -17.61067 v 10.11484 h 6.32178 c 0.45155,1.26436 0.90311,2.79965 1.17404,4.24463 z m -15.98506,-3.79307 h 4.42524 c -1.17404,6.14116 -2.79964,13.8176 -4.15431,19.14596 4.33493,5.50897 5.23805,10.83733 5.23805,14.6304 0,2.4384 -0.36125,3.88337 -1.26436,4.60586 -0.63218,0.54187 -1.44498,0.72249 -2.34809,0.72249 -0.63218,0 -1.17404,0 -1.89653,0 z m 9.84391,-12.10169 -1.80622,0.45156 H 3.4332274e-8 v 82.00249 H 11.379202 v -28.35769 c 0.90311,2.70933 1.35466,5.87022 1.44498,8.128 2.16746,0 4.24462,-0.0903 5.77991,-0.27094 2.07715,-0.36124 3.88337,-0.99342 5.41866,-2.07715 3.07058,-2.16747 4.33494,-5.96054 4.33494,-12.28231 0,-5.05743 -0.90311,-11.01796 -5.87023,-17.70098 2.34809,-6.95396 5.14774,-17.15911 7.3152,-25.10649 z m 21.9456,46.3296 h 22.12622 v 2.61902 h -22.12622 z m 0,-9.84391 h 22.12622 v 2.61902 h -22.12622 z m 38.65316,23.5712 h -21.40374 v -3.43182 h 17.0688 v -27.81582 h -45.96835 v 27.81582 h 16.16569 v 3.43182 h -21.22312 v 10.20516 h 21.22312 v 12.10168 h 12.73386 v -12.10168 h 21.40374 z" />
    </g>
    <g class="sprite" id="path3713" transform="translate(-3.433226e-8,-210.52757)">
      <path d="m 54.99947,239.56214 c 0.72249,0.72249 1.35467,1.44498 1.98684,2.16747 H 32.06045 c 0.72249,-0.72249 1.35466,-1.44498 1.98684,-2.16747 z M 48.768,230.53103 c 0.36125,0.63218 0.8128,1.35466 1.17405,1.98684 H 39.10471 c 0.45156,-0.63218 0.8128,-1.35466 1.17405,-1.98684 z m 6.05085,18.51378 H 30.25423 v -2.16747 h 24.56462 z m 0,7.04426 H 30.25423 v -2.16746 h 24.56462 z m -37.20818,5.14774 h 50.48391 v -11.10827 c 3.70276,2.07715 7.76676,3.79307 12.28231,5.05742 1.53529,-2.88995 4.60587,-7.22489 7.04427,-9.39235 -6.23147,-1.35467 -11.83076,-3.43183 -16.61725,-6.23147 h 12.64356 v -7.04427 H 61.86311 c -0.54186,-0.63218 -1.17404,-1.26435 -1.71591,-1.98684 h 16.07538 v -6.59271 H 43.34934 l 0.72249,-1.98685 h 33.86666 v -6.95395 H 46.14898 c 0.18062,-0.8128 0.36125,-1.6256 0.54187,-2.4384 l -11.65014,-1.6256 c -0.27093,1.35466 -0.54186,2.70933 -0.8128,4.064 H 9.21174 v 6.95395 h 22.7584 c -0.27094,0.63218 -0.54187,1.35467 -0.8128,1.98685 H 11.92107 v 6.59271 h 15.35289 c -0.45156,0.72249 -0.99342,1.35466 -1.53529,1.98684 H 4.15431 v 7.04427 H 18.06223 C 13.09511,242.99396 7.13458,245.52267 3.433226e-8,247.41921 2.52871,249.40605 6.77334,253.83129 8.39894,256.08907 c 3.2512,-1.17404 6.32177,-2.4384 9.21173,-3.88338 z m 9.84391,24.83555 v -3.70275 h 5.96053 l -3.70275,1.35466 c 0.36124,0.72249 0.8128,1.44498 1.17404,2.25778 z m -13.99822,-10.5664 v -3.34151 h 4.24462 v 3.34151 z m 17.97191,-3.34151 v 3.34151 h -3.97369 v -3.34151 z m 9.48267,10.20516 v -17.0688 H 27.45458 v -2.98027 h -9.7536 v 2.98027 H 4.42525 v 17.0688 h 13.27573 v 3.79306 c -5.87022,0.0903 -11.19858,0.0903 -15.53351,0.0903 l 0.54187,9.12143 c 8.85049,-0.27094 20.41031,-0.63218 31.87982,-1.17405 0.36124,0.99342 0.63218,1.89653 0.8128,2.70933 l 8.48924,-3.52213 c -0.90311,-3.07058 -2.98026,-7.40551 -5.05742,-11.01795 z m 27.00302,3.52213 v -3.52213 h 5.41867 l -2.88996,1.44497 c 0.45156,0.63218 0.99342,1.26436 1.44498,1.98685 z M 54.36729,275.50596 v -3.34151 h 3.52214 v 3.34151 z m 17.97191,-3.34151 v 3.34151 h -4.42524 v -3.34151 z m 9.7536,10.20516 v -17.0688 H 67.91396 v -2.98027 H 57.88943 v 2.98027 H 45.15556 v 17.0688 h 12.73387 v 3.70275 c -5.32836,0.0903 -10.29547,0.18062 -14.35947,0.18062 l 0.8128,9.12143 c 9.12142,-0.36125 21.1328,-0.8128 32.96355,-1.44498 0.63218,1.17404 1.17405,2.16746 1.53529,3.07058 l 8.48925,-4.69618 c -1.44498,-2.79965 -3.97369,-6.59271 -6.68302,-9.93422 z" />
    </g>
    <g class="sprite" id="path3715" transform="translate(-3.433226e-8,-210.52757)">
      <path d="m 21.76498,248.50294 v 4.24462 h -7.40551 v -4.24462 z m -7.40551,19.68782 v -4.78649 h 7.40551 v 4.78649 z m 19.41689,11.19858 V 237.30436 H 2.52871 v 47.1424 h 11.83076 v -5.05742 z m 18.15253,-13.0048 c 0.18062,-1.44498 0.18062,-2.88996 0.27093,-4.24463 h 13.09512 v 4.24463 z M 65.29494,247.4192 v 3.79307 H 52.19982 V 247.4192 Z M 78.20942,236.22062 H 39.64658 v 23.66152 c 0,9.66328 -1.08373,20.32 -13.8176,27.45457 2.4384,1.89654 7.04427,7.04427 8.66987,9.66329 8.57955,-4.8768 13.09511,-12.01138 15.4432,-19.68782 h 15.35289 v 5.23804 c 0,1.17405 -0.45156,1.6256 -1.89654,1.6256 -1.35466,0 -6.14115,0 -9.7536,-0.18062 1.71591,3.16089 3.61245,8.57956 4.064,12.01138 6.68302,0 11.65014,-0.18062 15.53351,-2.16747 3.79307,-1.89653 4.96711,-5.23804 4.96711,-11.10826 z M 63.84996,216.98436 v -5.59929 H 50.75485 v 5.59929 H 29.71236 v -5.59929 h -13.0048 v 5.59929 H 3.4332288e-8 v 11.65013 H 16.70756 v 5.50898 h 13.0048 v -5.50898 h 21.04249 v 5.50898 h 13.09511 v -5.50898 h 17.0688 v -11.65013 z" />
    </g>
    <g class="sprite" id="path3718" transform="translate(-3.433226e-8,-210.52757)">
      <path d="m 28.899556,288.23982 v -11.65013 h 28.628622 v 11.65013 z m 28.628622,-24.92586 v 10.74702 H 28.899556 v -10.74702 z m -0.903111,-2.52871 H 29.622045 L 16.075378,255.63751 V 297 h 1.896533 c 5.328356,0 10.927645,-2.79964 10.927645,-4.064 v -2.16746 h 28.628622 v 5.77991 h 2.257778 c 4.244622,0 10.747022,-2.25778 10.837333,-2.98027 v -28.17707 c 1.896534,-0.36124 2.980267,-1.26435 3.522134,-1.98684 l -11.830756,-8.9408 z m 2.167467,-15.08196 v -21.22311 h 10.205155 v 21.22311 z m 14.811022,-29.80267 -5.508978,6.05085 h -8.9408 l -12.553244,-4.8768 v 19.32658 C 42.807467,232.87911 36.485689,227.912 36.485689,227.912 l -5.6896,7.49582 H 29.2608 c 0.541867,-3.16088 0.8128,-6.59271 0.993422,-10.20515 h 12.914489 c 1.264356,0 2.257778,-0.45156 2.528712,-1.44498 -3.883378,-3.52213 -10.295467,-8.57955 -10.295467,-8.57955 l -5.6896,7.49582 H 18.152534 c 1.083733,-1.6256 2.167466,-3.34151 3.070577,-5.23805 2.077156,0 3.160889,-0.8128 3.522134,-1.98684 L 10.024533,211.29476 C 9.1214224,219.784 6.7733335,228.27325 3.7930668,233.96285 l 1.0837333,0.8128 C 9.1214224,232.51787 13.0048,229.35698 16.256,225.20267 h 1.715911 c -0.09031,3.61244 -0.09031,7.04427 -0.451555,10.20515 H 0.18062233 l 0.72248889,2.52872 H 17.249422 C 15.894756,246.78702 11.921067,254.01191 1.0681152e-7,260.33369 L 0.722489,261.50774 c 14.088533,-4.064 21.403733,-9.39236 25.1968,-16.16569 3.341511,3.16089 6.683022,7.40551 8.308622,11.28889 10.385778,4.8768 15.894756,-13.8176 -6.953955,-14.17885 0.632178,-1.44498 1.083733,-2.98027 1.444978,-4.51555 h 15.533511 c 1.174044,0 1.986844,-0.36125 2.348089,-1.17405 V 256.36 h 1.715911 c 5.147733,0 10.476089,-2.70933 10.476089,-3.79306 V 248.232 h 10.205155 v 6.05085 h 2.077156 c 4.064,0 10.205155,-2.07716 10.295467,-2.79965 v -25.01618 c 1.896533,-0.36124 3.070577,-1.17404 3.612444,-1.89653 z" />
    </g>
    <g class="sprite" id="path3720" transform="translate(-3.433226e-8,-210.52757)">
      <path d="m 11.559817,269.27448 v -48.58737 h 5.05743 c -0.54187,7.22489 -2.07716,18.15253 -3.2512,24.20337 3.34151,5.77992 4.42524,12.91449 4.42524,19.14596 0,2.61902 -0.54187,4.15431 -1.53529,4.78649 -0.45155,0.36124 -0.90311,0.45155 -1.71591,0.45155 z m 35.13103,-31.97013 c 3.97369,-2.61902 4.51555,-9.7536 -7.04427,-13.54667 h 18.24285 c -0.36125,3.97369 -1.17405,9.39236 -1.98685,13.54667 z m -4.96711,20.50062 h 20.68124 v 7.3152 h -20.68124 z m 20.68124,-9.66329 v 7.13458 h -20.68124 v -7.13458 z m 3.97369,30.34454 h -8.39893 v -10.83734 h 4.42524 v 4.24463 h 2.07716 c 4.064,0 9.84391,-2.4384 9.93422,-3.2512 V 249.8576 c 1.6256,-0.36125 2.70933,-1.08374 3.16089,-1.80623 l -10.74702,-8.03769 -5.32836,5.59929 h -19.32658 l -12.01138,-4.69617 v 32.512 h 1.6256 c 4.78649,0 9.93423,-2.4384 9.93423,-3.52214 v -2.25778 h 4.064 v 10.83734 h -20.50063 c 2.34809,-2.52871 3.2512,-6.41209 3.2512,-11.10827 0,-7.58613 -4.064,-16.79787 -12.91449,-22.7584 4.60587,-5.77991 9.93423,-15.17227 12.91449,-20.77155 0.45156,0 0.90312,-0.0903 1.26436,-0.0903 h 6.32178 c 1.53529,3.2512 2.70933,7.94738 2.16746,12.192 0.54187,0.54187 1.17405,0.99343 1.71592,1.35467 h -15.44321 l 0.72249,2.52871 h 54.09636 c 1.26436,0 2.25778,-0.45155 2.4384,-1.44498 -3.79307,-3.34151 -10.11484,-8.21831 -10.11484,-8.21831 l -5.50898,7.13458 h -6.95396 c 3.61245,-3.07058 7.49582,-6.59271 10.02454,-9.21173 1.98684,-0.0903 2.98026,-0.90311 3.2512,-2.07716 l -11.3792,-2.25778 h 17.24942 c 1.26435,0 2.16746,-0.45155 2.4384,-1.44497 -3.61245,-3.43183 -9.66329,-8.30863 -9.66329,-8.30863 l -5.41867,7.22489 h -7.76675 v -5.96053 c 2.16746,-0.36124 2.79964,-1.17404 2.88995,-2.25778 l -15.08195,-1.17404 v 9.39235 h -14.6304 l -9.66329,-8.76017 -5.77991,5.6896 h -2.98027 L 3.4332274e-8,213.46222 V 297 H 2.077155 c 5.960532,0 9.482662,-2.79965 9.482662,-3.70276 v -22.57778 c 1.26436,0.54187 1.98685,1.26436 2.52872,2.16747 0.72248,1.44498 1.17404,6.05084 1.17404,9.21173 3.97369,0 6.86364,-0.90311 8.9408,-2.61902 l 0.45156,1.53529 h 21.1328 v 15.71413 h 2.25777 c 6.23147,0 9.84392,-1.89653 9.93423,-2.25778 v -13.45635 h 22.21653 c 1.26436,0 2.25778,-0.45156 2.52871,-1.44498 -3.97369,-3.61244 -10.5664,-8.76018 -10.5664,-8.76018 z" />
    </g>
    <g class="sprite" id="path3722" transform="translate(-3.433226e-8,-210.52757)">
      <path d="m 33.23451,253.24473 v -4.8768 h 19.68783 v 4.8768 z m 19.77814,-18.87502 c 0.54186,0.72249 1.08373,1.44497 1.71591,2.16746 l -2.4384,2.4384 h -17.8816 l -4.96711,-1.89653 c 0.99342,-0.8128 1.98684,-1.80622 2.98026,-2.70933 z m -4.15431,-6.86365 c 0.72248,1.53529 1.53528,2.98027 2.34808,4.33494 H 34.86011 c 1.17405,-1.35467 2.34809,-2.79965 3.43183,-4.33494 z m 13.54666,-6.86364 -3.88338,4.33493 H 40.09816 c 0.90311,-1.44498 1.71591,-2.88995 2.52871,-4.33493 z m -29.17049,20.86186 h 19.68783 v 4.33494 H 33.23451 Z m 37.93067,25.37743 v 8.39893 h -3.61244 v -8.39893 z m -16.97849,8.39893 v -8.39893 h 3.2512 v 8.39893 z m -24.384,-8.39893 v 8.39893 h -3.52213 v -8.39893 z m -16.52693,8.39893 v -8.39893 h 3.2512 v 8.39893 z m 51.2064,-30.34453 c 4.064,2.61902 8.57955,4.78649 13.45635,6.59271 1.17405,-5.50898 3.88338,-9.21174 8.21831,-10.47609 l 0.0903,-0.99342 c -7.85707,-0.90311 -16.43663,-2.70934 -23.66152,-5.6896 h 20.04907 c 1.26436,0 2.25778,-0.45156 2.52871,-1.44498 -4.064,-3.07058 -10.38578,-7.22489 -10.38578,-7.22489 L 69.17832,231.841 H 57.34756 c -2.25778,-1.26436 -4.33493,-2.70934 -6.05084,-4.33494 H 70.7136 c 1.26436,0 2.25778,-0.45155 2.4384,-1.44498 -2.25777,-1.80622 -5.32835,-3.97368 -7.40551,-5.41866 h 10.74703 c 1.35466,0 2.34808,-0.45156 2.52871,-1.44498 C 74.7776,215.94624 68.18489,211.521 68.18489,211.521 l -5.87022,6.59271 H 43.8912 c 0.45156,-0.99343 0.90312,-1.98685 1.35467,-2.98027 2.52871,0 3.2512,-0.54187 3.52213,-1.53529 l -16.52693,-3.07058 c -0.54187,2.61903 -1.26435,5.14774 -2.16747,7.58614 H 6.77334 l 0.72249,2.52871 h 21.58435 c -0.63218,1.44498 -1.26435,2.88995 -1.98684,4.33493 H 9.7536 l 0.72249,2.52871 h 15.26258 c -0.90311,1.53529 -1.80622,2.98027 -2.79964,4.33494 H 1.44498 l 0.72249,2.52871 h 18.87502 c -5.41866,6.77333 -12.46293,12.192 -20.77154997,15.89475 l 0.45155,0.8128 C 8.57956,249.27104 15.62383,246.38108 21.67467,242.76864 v 14.54009 l -5.14773,-0.45156 v 7.49583 h -2.79965 l -9.7536,-3.88338 v 21.85529 h 1.26436 c 3.79307,0 8.03769,-1.98685 8.03769,-2.70934 v -1.80622 h 3.2512 v 7.85707 C 9.39236,285.84704 3.43183,285.93735 3.4332288e-8,285.84704 L 4.24463,296.77468 c 0.99342,-0.0903 1.98684,-0.72248 2.61902,-1.89653 10.02453,-2.79964 17.61067,-5.14773 23.30027,-7.04427 0.45155,2.16747 0.63217,4.42525 0.45155,6.59272 8.39893,8.30862 20.50062,-7.76676 -1.80622,-13.54667 l -0.8128,0.36124 c 0.54187,1.17405 1.08373,2.61903 1.53529,4.064 l -3.2512,0.0903 v -7.58613 h 3.52213 v 2.52871 h 1.71591 c 2.98027,0 7.85707,-1.71591 7.94738,-2.25778 v -10.11484 c 1.35467,-0.27093 2.34809,-0.90311 2.79964,-1.44498 l -8.9408,-6.59271 -4.24462,4.42525 h -2.79964 v -4.24463 c 1.80622,-0.27093 2.4384,-0.90311 2.70933,-1.71591 2.70933,-0.8128 4.24462,-2.16746 4.24462,-2.61902 h 19.68783 v 2.61902 h 2.07715 c 0.72249,0 1.6256,-0.0903 2.4384,-0.27093 v 6.23147 h -2.79964 l -10.29547,-4.064 v 22.03591 h 1.35467 c 4.064,0 8.48924,-2.07716 8.48924,-2.88996 v -1.6256 h 3.2512 v 7.40551 c -6.95395,0.0903 -12.73387,0.18062 -16.16569,0.0903 l 4.8768,11.10827 c 0.99342,-0.18062 1.89654,-0.8128 2.52871,-1.98684 10.29547,-2.61903 18.15254,-4.69618 24.20338,-6.5024 0.99342,2.4384 1.71591,4.96711 1.89653,7.40551 9.21174,7.13458 18.78472,-10.65671 -4.8768,-14.54009 l -0.8128,0.45155 c 0.8128,1.08374 1.6256,2.34809 2.34809,3.70276 l -3.88337,0.0903 v -7.22489 h 3.61244 v 2.52871 h 1.80622 c 3.2512,0 8.48925,-1.71591 8.57956,-2.34809 v -9.93422 c 1.35466,-0.36124 2.34809,-0.90311 2.70933,-1.44498 l -9.39235,-6.95395 -4.42525,4.69618 h -2.88995 v -4.24463 c 2.07715,-0.36124 2.70933,-1.08373 2.79964,-2.16746 L 60.96,257.12808 c 1.98685,-0.72249 3.43183,-1.6256 3.52214,-2.07716 z" />
    </g>
    <g class="sprite" id="path3724" transform="translate(-3.433226e-8,-210.52757)">
      <path d="m 54.99947,267.7392 c 0.63218,-3.43183 0.8128,-6.95396 0.8128,-10.29547 v -2.34809 h 11.74044 v 12.64356 z m 12.55324,-27.45458 v 12.28231 H 55.81227 v -12.28231 z m -0.90311,-2.52871 h -9.03111 l -13.99822,-4.78649 v 24.56462 c 0,14.44978 -2.88996,27.99644 -21.58436,38.65316 L 22.57778,297 c 21.40373,-6.23147 29.17049,-16.256 31.87982,-26.73209 h 13.09511 v 11.10826 c 0,1.26436 -0.45155,1.89654 -1.89653,1.89654 -2.25778,0 -13.18542,-0.63218 -13.18542,-0.63218 v 1.17404 c 5.23804,0.90311 7.3152,2.25778 9.03111,4.24463 1.6256,1.80622 2.16747,4.78648 2.52871,8.9408 14.17885,-1.26436 16.16569,-5.96054 16.16569,-14.08854 v -40.64 c 1.89653,-0.36124 2.98027,-1.17404 3.61244,-1.89653 l -11.65013,-8.9408 z m -49.67111,34.31822 v -14.35947 h 8.39894 v 14.35947 z m 8.39894,-30.8864 v 13.99822 h -8.39894 v -13.99822 z m 43.34933,-18.42347 h -6.23147 v -7.85706 c 2.34809,-0.36125 3.07058,-1.17405 3.16089,-2.4384 l -16.16569,-1.26436 v 11.55982 H 35.13103 v -7.85706 c 2.34808,-0.36125 3.07057,-1.17405 3.16088,-2.34809 l -15.89475,-1.35467 v 11.55982 H 3.4332288e-8 L 0.63218003,225.29297 H 22.39716 v 9.84391 h 2.07715 c 1.17405,0 2.34809,-0.0903 3.52214,-0.18062 l -3.52214,3.70276 h -6.23146 l -13.0048,-4.78649 v 50.21298 h 2.16746 c 5.96054,0 9.57298,-2.61903 9.57298,-3.43183 v -6.05084 h 8.39894 v 5.05742 h 2.07715 c 3.97369,0 9.7536,-2.16746 9.93422,-2.88995 v -33.95698 c 1.6256,-0.27093 2.61903,-0.99342 3.16089,-1.71591 l -9.03111,-6.86365 c 2.16747,-0.54186 3.61245,-1.35466 3.61245,-1.89653 v -7.04427 h 14.35946 v 9.21174 h 2.07716 c 5.77991,0 10.92764,-1.6256 10.92764,-2.61903 v -6.59271 h 20.50062 c 1.35467,0 2.34809,-0.45155 2.52872,-1.44497 -3.88338,-3.79307 -10.74703,-9.30205 -10.74703,-9.30205 z" />
    </g>

</svg>
