<?xml version="1.0" encoding="utf-8" ?>
<svg baseProfile="full" height="300mm" version="1.1" viewBox="0,0,200,300" width="200mm" xmlns="http://www.w3.org/2000/svg" xmlns:ev="http://www.w3.org/2001/xml-events" xmlns:xlink="http://www.w3.org/1999/xlink"><defs /><rect fill="#222222" height="300" width="200" x="0" y="0" /><text fill="#FFFFFF" style="font-size:12px; font-family:Arial; font-weight:bold;" x="10" y="20">C25K</text><text fill="#FFFFFF" style="font-size:4px; font-family:Arial" x="10" y="280">ATHLETE</text><text fill="#FFFFFF" style="font-size:9px; font-family:Arial" x="10" y="290">Yun Hao</text><text fill="#FFFFFF" style="font-size:4px; font-family:Arial" x="120" y="280">STATISTICS</text><text fill="#FFFFFF" style="font-size:3px; font-family:Arial" x="120" y="285">Number: 24</text><text fill="#FFFFFF" style="font-size:3px; font-family:Arial" x="120" y="290">Weekly: 3.0</text><text fill="#FFFFFF" style="font-size:3px; font-family:Arial" x="139" y="285">Total: 86.1 km</text><text fill="#FFFFFF" style="font-size:3px; font-family:Arial" x="139" y="290">Avg: 3.6 km</text><text fill="#FFFFFF" style="font-size:3px; font-family:Arial" x="167" y="285">Min: 2.4 km</text><text fill="#FFFFFF" style="font-size:3px; font-family:Arial" x="167" y="290">Max: 5.1 km</text><polyline fill="none" points="12.0,36.77859586363775 13.805374443996698,42.94992227041803 12.778745963063557,46.45363404308591 13.886539516155608,46.972696167715185 13.991834745043889,47.981978988864284 19.85546279931441,48.414526891756395 26.245566997735295,47.56384827847796 30.91365547501482,47.837796104184235 32.694899762340356,48.428945135754475 34.3050393028534,50.93770054142078 33.258667966583744,54.28264880440838 35.49838522943901,56.17136138540809 35.47864237398608,58.34840038681432 37.85655962466262,62.14012866386474 43.9636828955845,63.22140413636953 48.0,62.05362632210745 43.825482907821424,58.6079130663129 38.69672780454857,58.07446989638265 36.95058192679426,57.07966589478747 42.46761318622157,49.16427392175683 41.85777831939049,48.83265546054463 36.362683565879706,56.12810866587097 36.10163914447185,54.10963589111634 37.23795015539508,50.865610397726414 40.04362927307375,47.549429959275585 38.68356590089388,46.6554917287649 37.071232709800825,46.52572610176139" stroke="#4dd2ff" stroke-linecap="round" stroke-linejoin="round" stroke-width="0.5" /><polyline fill="none" points="59.57555109052919,51.323009296669625 63.00352348503657,52.625233055703575 68.75559826439712,50.4961968644493 70.7023091930896,50.55820789649442 76.27826795959845,52.459871703307726 81.82592236681376,56.676550319520175 84.07140153157525,57.17262524772377 94.3238694272004,44.52239173722046 94.66666666662786,45.65928661277576 93.10363705188502,47.9744012147421 88.45857721089851,52.666573375987355 85.83885151857976,52.17048906015407 85.33880783908535,50.84759249891795 86.18793861567974,48.263788957265206 89.68824437272269,44.48105000295618 85.89860516588669,42.82737475227623 81.75673393323086,43.61287192837335 78.60237034445163,46.19672593731957 66.32142337143887,45.36989570505102 64.77097347192466,46.17605521649239 64.40616173075978,48.38781216785719 65.84653912240174,51.92244651487272 62.71733496407978,52.377190984014305 59.47176844009664,50.930273749370826 58.66666666662786,48.11909512981947 58.98430447559804,46.19672593731957 62.44372615823522,46.71349337452557 64.45333566295449,46.32075022437493 66.3969016628107,44.83245451445691 75.87257214414421,43.40616239634983" stroke="#4dd2ff" stroke-linecap="round" stroke-linejoin="round" stroke-width="0.5" /><polyline fill="none" points="126.94493731262628,32.0 138.36822146433406,40.29252933136013 136.58741992816795,42.64372181269573 135.03739180928096,43.04822613214492 136.04894862137735,43.174633616625215 134.27583953249268,46.99211380002089 134.31045554508455,50.20280342178012 122.22562093078159,53.11009025621752 121.45637620671187,48.88819462819083 118.67555652942974,47.87695305609668 113.87931567500345,48.02863951577456 113.50238576030824,49.26740931223321 115.62934742227662,52.80672255133686 108.2984452022938,55.461179251782596 108.36383100389503,64.96646384253108 111.35619298019446,66.66019209333172 116.84860030980781,66.07876410266908 118.08323809190188,66.83714820789464 118.97556197177619,65.37093715602532 122.71409133041743,64.35975281902938 132.51811533828732,68.0 137.47205136076082,63.1463269800588 137.5489758333424,61.62953757143987 135.69509604829364,61.326178741655895 133.39505432359874,58.975137096247636 127.91803188854828,61.275618905885494 128.01418747904245,58.975137096247636 126.42185090028215,58.16617214087455 110.50617756019346,59.32905855732679 115.0062591957394,60.97225970742875 116.21397341252305,64.99174344105995 114.19470601191279,66.1546026020078 109.57154522067867,65.67429177228769 108.37152345117647,62.36265343867126" stroke="#4dd2ff" stroke-linecap="round" stroke-linejoin="round" stroke-width="0.5" /><polyline fill="none" points="156.25270607834682,44.64992352158151 153.15591174026486,42.310108731515356 152.0,39.440704218504834 152.39154870947823,41.44806197359867 154.18068276444683,43.59085424028308 156.57493755209725,45.0193644338724 159.16777685267152,45.05630847214343 161.01124063279713,44.55140578262217 167.02123230643338,37.334795301510894 182.8442964196438,48.63983445123449 181.60220649460098,49.88358003554458 178.3349292256753,50.16680770352832 177.7241881765658,51.23814202762878 180.92402164865052,51.127314714212844 183.86157368856948,53.29458868881193 185.98792672768468,53.183762982167536 187.90632805996574,53.750204573247174 188.0,54.920022438767774 186.26144879270578,56.151399242909974 187.83701082429616,57.924563061387744 184.3243130724295,62.66520469848183" stroke="#4dd2ff" stroke-linecap="round" stroke-linejoin="round" stroke-width="0.5" /><polyline fill="none" points="18.036765589320567,79.67436006518255 16.897753213939723,82.65050825785875 12.0,92.13762375705846 13.809443710197229,93.14220509160805 16.645440346037503,97.293112960906 19.39637150062481,99.16949896239385 20.24846810044255,100.3161634192511 22.850895109935664,100.32563993481745 26.959990388073493,99.70966471119027 29.173134687007405,99.88971936688904 29.881052505108528,99.54856292551995 43.376186471257824,98.42084376834828 47.40165805595461,97.70061367260496 48.0,96.7150279463167 36.86507269012509,89.09539181475702" stroke="#4dd2ff" stroke-linecap="round" stroke-linejoin="round" stroke-width="0.5" /><polyline fill="none" points="69.91335686971433,84.56129766222875 69.53736393060535,84.35242286688299 69.5347160929814,81.95903476809326 68.77081494557206,79.27837224442192 68.34186525444966,79.10430077039928 67.13047955278307,80.02687613778107 66.06737275671912,83.15138434668188 63.57972933218116,88.26875284707785 59.95616357750259,94.22128136862739 58.66666666668607,97.81525390207389 59.02544866135577,100.89569922960072 68.19093851133948,99.84278930018627 69.01971167995362,100.31268435419042 75.35466313624056,99.31197927477479 82.2205060312408,99.07702967754449 93.40497205063002,97.69342643468553 94.47337452188367,97.29313514218666 94.66666666668607,96.65788698361575 93.19579288025852,95.77897535883676 92.34848484850954,95.64844327217725 90.49367461015936,94.27349496705574" stroke="#4dd2ff" stroke-linecap="round" stroke-linejoin="round" stroke-width="0.5" /><polyline fill="none" points="105.33333333331393,79.74967184440902 106.5282192696468,81.95653590158327 108.0985376451863,83.36843560905254 109.96306509565329,84.0565831200147 112.57304253359325,84.04471853714495 113.66143561463105,83.74810362983408 115.72270410292549,82.07518349718157 119.6394752234919,77.18681724482303 120.24774797353894,77.0918957810427 140.41641179902945,91.22260299002664 139.95975599554367,93.23946134875587 141.33333333331393,94.98342663858057 140.0806885601487,96.14605780140846 139.21972089906922,98.07979997139773 135.54120498034172,102.9081042189573 134.404077880783,102.84878947686957 132.46554692060454,101.37777563739655 128.35744965315098,99.32544761566533" stroke="#4dd2ff" stroke-linecap="round" stroke-linejoin="round" stroke-width="0.5" /><polyline fill="none" points="156.36058272601804,75.79769751473214 159.43027077097213,72.0 162.7517422173405,74.39199549045588 161.21517365105683,77.99691064356739 161.71184227854246,79.10783927571902 161.708393190871,80.75154287181795 159.36818719253642,84.71901802310458 160.17872279987205,85.53516938920802 159.79759861005004,86.85006919302396 160.55984698975226,89.21912248781155 162.16884639766067,88.64103210784378 166.55091230903054,88.4710050384383 178.3054031598731,86.92941617134784 180.71803999971598,89.44582389896095 181.804502622399,89.81988036690746 183.63941727398196,101.59644363127154 181.44407295872224,102.46915917611477 180.59387284290278,103.45520738400228 180.3144967398839,104.66792313065525 175.00462623959174,103.97656319727685 174.68731017207028,105.68795569224312 174.10958798381034,105.88062761478795 178.33989403682062,108.0" stroke="#4dd2ff" stroke-linecap="round" stroke-linejoin="round" stroke-width="0.5" /><polyline fill="none" points="19.29519570618868,120.42822061908373 19.93847362214001,123.12336655530089 21.8329624296166,125.38477943092585 25.006938080885448,127.10405359981814 26.816599031270016,127.32089781379909 30.66448488016613,126.01982857615803 37.2056551904534,117.31481169628387 39.366409215843305,118.39908962698246 48.0,125.15244381286902 39.41589213249972,135.3904129385919 38.20473884016974,140.9815519629774 19.94082995154895,142.68518830373068 13.293624820013065,137.32642273773672 12.0,134.213308710634" stroke="#4dd2ff" stroke-linecap="round" stroke-linejoin="round" stroke-width="0.5" /><polyline fill="none" points="67.14861719339387,123.68906005992903 66.98812482738867,125.00548147447262 68.07180336926831,126.8447099378318 69.46084349235753,127.91835668131534 71.25608553283382,128.31046847173275 74.00718033697922,127.50757136733591 76.97131810471183,123.30626782969921 78.27230046951445,122.4193049862879 84.23040201998083,126.96607923756528 94.40959482389735,133.8745673954254 94.66666666668607,134.2013092212801 94.40107310528401,134.64007525428315 87.08943859237479,135.8630094292821 67.35739929776173,137.5806950137121 66.52369116659975,137.28196905688674 64.93012979842024,135.6016200872691 63.183177496364806,134.54672092910187 61.34674714959692,131.54066833759862 58.66666666668607,129.83222211578686 59.77733065059874,127.51690741453058" stroke="#4dd2ff" stroke-linecap="round" stroke-linejoin="round" stroke-width="0.5" /><polyline fill="none" points="105.50901525653899,122.37842698479653 105.33333333331393,123.88581659753254 107.1049468331039,126.59664578989032 109.58298659272259,128.22554929722537 111.65603328711586,128.51729120791424 113.67730004619807,127.90949487454054 115.46370781317819,126.5480215133648 120.06842348590726,120.78592516740173 141.33333333331393,135.89572825738287 141.31853906606557,136.78305940372957 139.55802126671188,137.25711072518607 131.3028201572015,138.42399944800127 121.07998150715139,139.21407483260555 120.59731853904668,137.43943772921193 121.05779010627884,135.57969114853768 127.70781322236871,126.4264607479854 121.76791493297787,122.43920913802867 117.10587147477781,127.49619186084601" stroke="#4dd2ff" stroke-linecap="round" stroke-linejoin="round" stroke-width="0.5" /><polyline fill="none" points="177.04484109720215,117.4016247917607 170.8917718763696,118.65843533932639 169.71946016547736,122.75847593408253 162.68558989989106,121.46048079538741 158.90848933393136,121.66651224382804 158.4383108401671,123.06752134941053 160.04945581196807,125.84891197683464 167.73844144539908,125.86951474861417 180.54923813673668,123.19113940281386 184.91562908142805,123.60319911576516 185.72747061389964,124.46852218431013 155.58589464519173,127.35290962614818 153.70831519376952,127.9503854989307 153.78040922945365,130.01063559387694 152.0,131.24677706584043 153.13783195475116,131.45280001865467 154.16595559427515,136.08826917283295 155.76769699598663,137.22137008435675 158.56996081850957,137.34498076559976 162.77962559857406,135.24359042847937 165.59129299095366,135.26419238471135 170.7444492817158,137.01535213913303 179.89098824560642,142.5983752082393 188.0,131.76183411231614 184.14453635178506,127.86797512308112 177.55576839356218,128.0740010090085 174.04510230734013,130.4226834664878 161.03056160209235,130.07244282036845 158.06216804531869,130.60810477587802" stroke="#4dd2ff" stroke-linecap="round" stroke-linejoin="round" stroke-width="0.5" /><polyline fill="none" points="22.90376353956526,163.9920417975809 22.88790159713244,162.00214602796768 22.093482650991064,159.48213390229648 21.47751055622939,159.11716136790346 20.449127960309852,159.84710510551668 19.793501009698957,162.16724805564445 12.0,177.6248049810747 12.457352671190165,180.8828386321038 19.333504681417253,179.89240762266854 26.01138241228182,179.86634351633984 31.146686249237973,179.05835285443754 35.43601982743712,178.93671928667754 47.31000550754834,177.346781197979 48.0,177.02531523587095 47.78454194968799,176.68647161759145 43.75560859183315,173.4022355612251" stroke="#4dd2ff" stroke-linecap="round" stroke-linejoin="round" stroke-width="0.5" /><polyline fill="none" points="94.55263482662849,167.02617845059285 94.66666666668607,165.9844291086265 93.7632975440938,165.23475303193118 91.25755892880261,164.15404233312438 88.7784771072329,162.2944166547095 83.35826237197034,159.78241257364425 74.58373441937147,160.92158418988402 70.71405652229441,160.308185527123 65.0124645192991,161.32077834209485 64.09132420097012,161.0189487483076 61.360483771481086,161.46682462801255 58.66666666668607,161.2428869118521 59.330124645202886,179.88660426528077 61.590028384584,179.20516526872962 65.72923608543351,179.51668075248745 66.95396766631166,179.04940720225568 76.2201653709053,180.21758742635575 77.77366407506634,177.0245326475415 79.22201653715456,176.0218168058127 80.09428606688743,174.70756401601102" stroke="#4dd2ff" stroke-linecap="round" stroke-linejoin="round" stroke-width="0.5" /><polyline fill="none" points="114.62905785063049,168.10137942836445 115.31046537176007,167.44908125923394 115.31933576555457,165.90633065147995 113.82749681395944,162.75864566041855 111.86310779454652,156.27664765592635 113.04770856205141,153.95712826800445 113.04851496143965,153.04587662503036 116.55473969731247,152.0 117.65789412200684,152.50740659418807 118.81427090935176,152.19674974242662 122.81562489719363,153.03552145430876 123.45268044946715,153.71896087202913 124.34939661930548,156.4526808362716 128.2451122814091,161.0191012197538 128.8297518705367,161.12264621546637 130.81994567182846,160.36676575666934 131.12315185874468,161.42292621347588 133.25285276200157,161.73355992825236 132.74078912188997,164.63277037103398 132.64160199154867,169.25065832183463 132.0505112069659,171.6423667018098 132.69643715309212,172.2221678401038 134.78904368239455,179.08639294038585 134.49551428866107,182.8962361049562 134.80355887219775,185.15309880817222 134.5035782829509,185.6189598434139 132.5214484760072,186.37468624149187 131.7295642325771,187.2339312034601 130.51270748773823,187.29604506606847 130.16273013368482,185.72248428003513 131.3489437000244,183.86938378014747 130.10386297508376,183.641626498822 129.56196255597752,185.97094257498247 129.62002331513213,187.7722503119876 130.03289982496062,188.0" stroke="#4dd2ff" stroke-linecap="round" stroke-linejoin="round" stroke-width="0.5" /><polyline fill="none" points="163.35886903313803,179.59337723013596 163.74799526314018,179.7935431444057 164.49766416026978,181.73679969467048 165.3207408437156,182.66254380099417 165.55395673119347,184.2804903595752 165.26487297099084,186.7157006800553 165.55265747831436,188.0 171.26937003908097,186.78241793482448 173.4072906115034,186.51554864823265 175.63550925732125,186.70736102009687 179.4260794610018,184.7642012480792 179.59758083778434,180.03540975520445 177.590884803707,173.72166513208504 177.97546364870504,167.39083849798044 178.7082422587555,164.9384736242937 177.03155644977232,164.15437146010663 174.7500684368424,164.171054548955 171.79491781879915,161.4099653667654 171.2479323669977,161.54343367052934 169.89930790374638,158.3067769797999 169.20550687937066,155.170122909185 168.0361793101183,152.0 162.23241680811043,155.48712966101448 160.40241916224477,158.06485770137806 160.4478930121113,159.69988692893094" stroke="#4dd2ff" stroke-linecap="round" stroke-linejoin="round" stroke-width="0.5" /><polyline fill="none" points="12.698340165312402,224.05175971182325 12.0,216.32755152242316 12.41206908132881,214.70188603670977 13.925677037797868,212.03036393338698 15.911833882099018,210.54961174856726 19.32208856928628,208.7892539536333 22.843626100337133,204.6367814611076 25.299912640242837,202.741716582168 35.3887507559848,197.4498791679507 40.57791815063683,197.21168938803748 46.43397621123586,195.94824028818402 47.539547073422,196.2071448421193 48.0,198.8997201228558 47.88226597674657,204.95780050881876 47.23876083595678,208.45788968861598 45.18002822389826,213.79067566963204 43.5632013977156,215.80982597600087 41.30851421272382,216.23436108380702 40.738391237100586,215.83053503945848 39.71346011693822,215.95478934708808 39.44492977618938,216.58641348421952 37.75633357971674,217.1766167344249 34.15173711441457,220.08617411291198 29.683489012822974,222.63327500726155 26.41354747657897,222.767876443133 24.079026947089005,219.7651942682278" stroke="#4dd2ff" stroke-linecap="round" stroke-linejoin="round" stroke-width="0.5" /><polyline fill="none" points="94.66666666668607,200.27660053318687 89.23505047534127,197.32573808670713 81.69113909837324,195.2321748114482 71.39654325152515,195.3119303024505 70.72782668523723,195.3817163116255 70.20619743625866,196.4683786952446 69.5678081518854,201.73206556277728 58.68486303585814,201.2934342088629 58.66666666668607,209.1187645487298 59.60681240615668,214.97993647574913 61.54017662839033,214.57125902266125 65.61161422578152,214.77061405954737 66.84290187165607,213.92335276195809 70.94466675096191,214.95003329671454 76.34292293223552,215.64777210928878 72.77795094286557,223.2030151111976 73.0812237620703,223.78110029912204 75.04643163026776,224.7678251885518" stroke="#4dd2ff" stroke-linecap="round" stroke-linejoin="round" stroke-width="0.5" /><polyline fill="none" points="141.33333333334303,209.61640060045465 133.53016771757393,206.27223085983496 131.29910350448336,206.72300256320887 126.55438596490421,206.81437485269998 126.06240295115276,207.28341739798634 125.94751426242874,208.17885354737518 125.05897996824933,208.5077864047489 123.23836486082291,208.7453480646218 120.64132458285894,208.4956037338452 116.75919873031671,208.6113390221035 114.55037103765062,211.51684131378352 113.76375412859488,212.11376398818902 113.16985372966155,213.64868468235363 112.76959636254469,213.78268410122473 112.43419551322586,214.55013038684774 111.94499206449836,213.74613883056008 111.95703684640466,213.3928668991939 110.41252520054695,212.25994835857273 109.4016900441784,209.47021072046118 109.03849354438717,206.12603400959415 108.69938660832122,205.6752584695787 107.95538969672634,205.64480055836611 107.8488397031906,205.44986961315226 107.18822974310024,206.5828981548948 107.93130013297196,213.9227741290597 105.66132200919674,213.96541016893025 105.33333333334303,210.944278057068 105.60573070819373,210.5605362371134 107.62462145584868,210.30470719082587" stroke="#4dd2ff" stroke-linecap="round" stroke-linejoin="round" stroke-width="0.5" /><polyline fill="none" points="188.0,211.37660562447127 186.34901423103292,210.67724300817645 184.54995035700267,209.55824703075632 182.63684932154138,209.1274283975181 181.11777220937074,208.43363649113599 174.48829842562554,208.50077796990445 173.74875892396085,210.08977254342972 173.3598411422863,210.22405197908301 170.47402014091494,210.25202682630697 167.80521015558043,210.01144274338003 167.72521393789793,210.24083688885003 167.2877878114523,210.30238152063248 165.42064205004135,210.28000166135826 163.22074606403476,213.02147657215028 162.6735378942103,213.4354850933414 162.1603706680762,214.9180613539429 161.7212424944446,215.16422165698896 161.39359841143596,215.70688991195857 161.22764881097828,214.70546760812067 159.89069074750296,213.86627491937543 159.057538650668,211.85216786715318 158.8430807054392,209.1162382647708 158.24225804928574,205.61363119410817 157.3657037492667,204.6232429022275 156.68828896980267,204.29311008804507 156.45170441115624,204.39382875305455 156.0636376531038,205.55767745915 155.67727294220822,205.88780379308446 154.20670417475048,206.24590502214778 153.0697366554814,206.21792843526418 152.1948844026483,206.53686080505577 152.0,206.41376428802687 152.7216680062411,205.7535153189565 153.01697319277446,205.76470603581038 153.53099144250154,211.62837430790387" stroke="#4dd2ff" stroke-linecap="round" stroke-linejoin="round" stroke-width="0.5" /><polyline fill="none" points="22.404013377905358,239.81242336425203 21.751170568575617,238.95053640226251 20.446822742465883,239.85639699212334 19.476923076901585,242.82017550551245 12.0,257.6905263575536 12.104347826098092,261.0494635977375 18.287625418102834,259.9943120662574 24.754515050153714,259.82724539915944 27.590635451488197,259.246906414417 35.04214046825655,258.8688049840348 45.926421404699795,257.57621501516405 48.0,256.87275776060415 46.702341137162875,255.54496887893765 38.3892976588686,250.0665565146992 34.00401337794028,246.69846089528437 28.292976588651072,243.41819744945678 25.292307692347094,241.25474840329844 22.620735785982106,239.91796003921627" stroke="#4dd2ff" stroke-linecap="round" stroke-linejoin="round" stroke-width="0.5" /><polyline fill="none" points="94.66666666665697,250.00619881462262 93.10441452590749,248.39207719483602 91.31664519602782,247.4714130989778 89.79622285650112,247.25619114510846 88.0139095876948,247.7284828842894 86.96543652698165,248.54751277540345 86.16430489951745,249.8985918840699 85.8933205351641,251.35724929585194 87.76020274992334,253.28812939994532 85.91150740522426,255.51186229538507 84.70117120072246,254.86029208574837 81.95768184764893,254.627159962296 80.8164557495038,254.08915974131014 79.37605563836405,253.78429108314958 75.67593691850198,254.09513754464206 74.21825928078033,253.9755813794036 72.09948891526437,252.9294560768758 70.25352160111652,252.34361896371047 67.74918958969647,252.39144258838496 67.20358348698937,253.1207487483989 67.02444281661883,252.13439021510567 65.28941540999222,250.88498245167648 64.0727138009679,247.85402824446646 63.80627615418052,245.1398060913598 63.438901378336595,244.67945383400001 62.798723551182775,244.48813770461493 62.26493891401333,244.81696197360725 62.17673259408912,245.23546331699254 62.186735372641124,245.9409312508833 62.56320358347148,246.5806289746797 62.341323768370785,247.09477423815042 62.370422760548536,248.73283935502695 61.43198026387836,248.89425242109792 61.2328340364038,248.05131334788166 60.192545067257015,247.0110764336896 58.666666666656965,246.97520591489592 58.86126617665286,249.79696296187467 59.15225609811023,250.13771816797453 59.2350063569902,252.6305602134853 59.33321545549552,252.87565491725036 59.69331548328046,252.86967700799505 59.81425816935371,252.42731028509297" stroke="#4dd2ff" stroke-linecap="round" stroke-linejoin="round" stroke-width="0.5" /><polyline fill="none" points="141.33333333334303,256.68220185213795 139.4865446035983,255.80666821659906 138.85814122631564,254.94234773959033 138.7573917718255,254.20710499025517 139.12623723238357,251.59159352798815 138.9102235714381,251.13695520238252 139.12367580557475,250.3736046489612 138.48588052997366,249.5428893918288 138.46282768869423,249.01526740090412 138.1298422034306,248.90861987948665 137.26237232392305,249.18365786590948 136.63396894666948,248.13962991103108 135.4676659393299,246.90473636721435 133.3536350124632,246.04591012939272 130.7119501628331,246.28166748784497 129.24681402777787,247.42114926474096 128.57486639468698,249.4418557269455 128.59194257346098,250.17153975827023 130.16124339879025,251.9957137996389 128.63804825601983,253.696358921301 127.56822565852781,252.97232735884245 125.37137526483275,252.91058785811038 122.5742971887521,252.05745417417347 119.7345286658674,252.48402242364318 117.67941055560368,252.24267494408195 115.83603706164286,251.48495025719603 115.61148531132494,251.2211477261808 112.96126237232238,250.49708843795452 111.46624292444903,250.72160381347203 111.10166650853353,251.4793374485962 110.78575720201479,250.2613464543465 109.33855105462135,249.2846919343756 108.84675710715237,247.89826620977328 108.43949024443282,247.35940446157474 107.97074913827237,243.96896291007215 107.29538626948488,243.3177981478584 106.76004806626588,243.37393329957195 106.34595073206583,243.9072148090272 106.40315593080595,245.9841640124905 106.01211143788532,246.0290702851962 105.62021313601872,244.54153340136327 105.41017613763688,244.42365165600495 105.33333333334303,244.6706417328969 105.70730164754787,244.94569775316268 105.9412452961551,245.9448709982862 106.32716693545808,245.87751148976895 106.48939063341822,246.07397652672807 106.63709957944229,247.88703996910044" stroke="#4dd2ff" stroke-linecap="round" stroke-linejoin="round" stroke-width="0.5" /><polyline fill="none" points="186.7180052799522,234.01728346822347 186.36105056724045,232.1811455755378 185.9915711278445,232.0 184.57126711317687,232.58460493184248 184.53244046022883,233.46562245675887 183.56427908162004,235.31820269700984 182.7965133312391,235.99335627417895 181.7193868297909,239.19615348163643 179.98220722813858,242.0530561039559 179.71417807546095,242.79402543567994 179.9145737036015,242.80225839572813 178.9363925436046,242.64583203251095 175.76888914589654,240.90042563466704 173.07857783773215,238.45515603467356 171.8035606535268,239.58311651342228 170.43586049127043,238.85858869610092 169.41259031492518,238.82565548194543 167.57521289912984,241.8060650399275 167.01034772224375,242.20948344501085 164.44778862703242,241.31208098205389 161.8163435346505,240.80986121838941 160.96466211494408,241.60023866192932 157.91113373075495,241.1968176648952 156.1576719842269,241.7731328495065 155.84330134253833,242.14361933283362 155.47256943042157,247.47023164514394 155.9848307549546,248.49106289877818 156.56973549467511,252.91179398806707 157.19221441468108,254.8957050044628 156.9780415870773,255.25790834442887 155.53394059158745,255.53779179595585 153.2819947200478,255.62834214762552 154.15872559323907,259.50546245798614 156.77889843159937,259.11034917052893 158.54738985016593,259.31613754654245 161.20012697801576,259.0938860812312 165.55372200001148,258.1554852629124 164.97758456904558,267.14399580605823 167.49254970249604,268.0 169.0180614219862,267.95061535265995 169.69063924896182,267.0369947385698 169.89228734982316,265.8517440699288 170.156559084513,267.53084481209953 172.6226777836564,267.85184598086926" stroke="#4dd2ff" stroke-linecap="round" stroke-linejoin="round" stroke-width="0.5" /></svg>