<?xml version="1.0" encoding="UTF-8" standalone="no"?>
<!-- Created with Inkscape (http://www.inkscape.org/) -->

<svg
   xmlns:dc="http://purl.org/dc/elements/1.1/"
   xmlns:cc="http://creativecommons.org/ns#"
   xmlns:rdf="http://www.w3.org/1999/02/22-rdf-syntax-ns#"
   xmlns:svg="http://www.w3.org/2000/svg"
   xmlns="http://www.w3.org/2000/svg"
   xmlns:xlink="http://www.w3.org/1999/xlink"
   xmlns:sodipodi="http://sodipodi.sourceforge.net/DTD/sodipodi-0.dtd"
   xmlns:inkscape="http://www.inkscape.org/namespaces/inkscape"
   id="svg8"
   version="1.1"
   viewBox="0 0 210 297"
   height="297mm"
   width="210mm"
   inkscape:version="0.92.2 (5c3e80d, 2017-08-06)"
   sodipodi:docname="text.svg">
  <defs
     id="defs2">
    <linearGradient
       inkscape:collect="always"
       id="linearGradient829">
      <stop
         style="stop-color:#000000;stop-opacity:1;"
         offset="0"
         id="stop825" />
      <stop
         style="stop-color:#000000;stop-opacity:0;"
         offset="1"
         id="stop827" />
    </linearGradient>
    <linearGradient
       inkscape:collect="always"
       xlink:href="#linearGradient829"
       id="linearGradient831"
       x1="29.104166"
       y1="147.17969"
       x2="66.910641"
       y2="147.17969"
       gradientUnits="userSpaceOnUse" />
  </defs>
  <sodipodi:namedview
     inkscape:window-maximized="1"
     inkscape:window-y="-8"
     inkscape:window-x="-8"
     inkscape:window-height="745"
     inkscape:window-width="1366"
     showgrid="true"
     inkscape:current-layer="layer1"
     inkscape:document-units="mm"
     inkscape:cy="458.19499"
     inkscape:cx="589.09641"
     inkscape:zoom="0.7"
     inkscape:pageshadow="2"
     inkscape:pageopacity="0.0"
     borderopacity="1.0"
     bordercolor="#666666"
     pagecolor="#ffffff"
     id="base"
     showguides="false"
     inkscape:snap-bbox="true"
     inkscape:bbox-paths="false"
     inkscape:bbox-nodes="true"
     inkscape:snap-grids="false">
    <inkscape:grid
       type="xygrid"
       id="grid815" />
  </sodipodi:namedview>
  <metadata
     id="metadata5">
    <rdf:RDF>
      <cc:Work
         rdf:about="">
        <dc:format>image/svg+xml</dc:format>
        <dc:type
           rdf:resource="http://purl.org/dc/dcmitype/StillImage" />
        <dc:title></dc:title>
      </cc:Work>
    </rdf:RDF>
  </metadata>
  <g
     inkscape:label="Layer 1"
     inkscape:groupmode="layer"
     id="layer1">
    <path
       style="opacity:0.93999999;fill:#002b36;fill-opacity:1;stroke:none;stroke-width:0.2;stroke-miterlimit:4;stroke-dasharray:none;stroke-dashoffset:0;stroke-opacity:1"
       d="M 4.5921096,154.32224 9.2147911,177.48943 96.043986,160.1639 91.421298,136.99671 Z m 82.1501024,-14.93961 0.340552,-0.0679 c 1.836546,-0.36646 3.055093,-0.28078 3.638615,0.23513 0.264985,0.31388 0.413247,0.54989 0.447222,0.72016 l 0.05825,0.29191 0.03826,1.45939 0.718918,2.33532 0.446205,2.9968 1.776921,7.89117 0.310527,1.80978 -0.427641,0.13591 0.291171,0.44778 c 0.123771,0.62029 -0.521044,1.19159 -1.93687,1.70174 l -0.291902,0.0582 -0.0097,-0.0486 -0.07755,-0.64217 -0.116604,-0.33084 -0.194096,0.0387 -0.263285,0.2043 -0.155658,-0.0195 -0.06767,0.16527 0.301383,0.49632 -0.06818,0.16537 -0.788113,0.10667 -3.619653,0.87401 -2.150322,0.37848 -0.671397,0.18456 -0.05836,-0.0389 -3.6731,0.73291 c -0.389202,0.0777 -0.593508,0.0678 -0.612936,-0.0292 -0.02427,-0.12162 -0.07522,-0.18681 -0.136029,-0.17469 -0.313888,0.26498 -0.671612,0.43702 -1.060815,0.51468 L 78.0006,162.121 c -0.07297,0.0146 -0.143368,-0.0847 -0.213801,-0.31092 l -0.165367,-0.0682 -0.145951,0.0291 0.01941,0.0973 0.204094,0.26227 -0.03894,0.0584 -0.341057,0.068 -0.155658,-0.0195 -0.184894,0.0875 -1.303852,0.31075 c -0.267577,0.0534 -0.632397,-2.9e-4 -1.089609,-0.1367 0.05339,0.26757 -0.250731,0.45473 -0.895347,0.58335 l -0.520045,0.0822 -0.161058,0.0537 -0.0055,-0.0274 -0.844879,0.13381 c -0.04458,0.014 -0.09149,0.0309 -0.132374,0.0391 l -1.683889,0.29173 c -0.09128,0.0388 -0.175926,0.0672 -0.25675,0.0892 l -0.0048,0.008 -0.0072,-0.005 c -0.03009,0.008 -0.06187,0.0187 -0.09051,0.0243 l -0.116717,-0.0779 -0.06279,-0.3147 c -0.01293,0.0304 -0.0241,0.0678 -0.03269,0.11348 l 0.08086,0.25473 -0.03894,0.0583 -2.66606,0.58256 -9.438166,1.88326 -5.93534,1.18431 -0.01941,-0.0973 0.564503,-0.46675 c -0.0097,-0.0486 -0.104553,-0.0803 -0.272375,-0.0974 -0.121627,0.0243 -0.326046,0.2674 -0.613265,0.72941 l -6.811047,1.35904 -7.29755,1.45613 -0.0097,-0.0486 0.06868,-0.16547 -0.175073,-0.11682 c -0.03414,0.20915 -0.136353,0.33072 -0.330957,0.36955 -0.158112,0.0315 -0.408622,-0.0194 -0.73935,-0.15599 0.04611,0.23109 -0.102325,0.37452 -0.418551,0.43763 l -0.583804,0.11648 -0.117221,-0.0778 -0.03883,-0.19461 0.06869,-0.16546 -0.0097,-0.0486 -0.0978,0.0195 c -0.06081,0.0121 -0.08715,0.19445 -0.09702,0.52524 l -1.33348,0.1649 c -1.104402,0.29623 -2.534727,0.60694 -4.310464,0.96127 l -0.437853,0.0874 -0.116717,-0.0779 -6.300239,1.25712 -2.510403,0.60209 c -0.194057,0.0387 -0.417552,0.0404 -0.668481,0.0142 l -5.242533,1.16517 c -1.836551,0.36645 -3.081817,0.21023 -3.735804,-0.46867 -0.3597969,-0.40879 -0.5857779,-0.90751 -0.6998409,-1.47915 l -0.06795,-0.34055 c -0.19415,-0.97302 -0.218253,-1.47407 -0.04797,-1.50805 0.158113,-0.0315 0.238396,-0.0729 0.223836,-0.14584 l -0.05836,-0.0389 -0.233544,0.0972 -0.116715,-0.0779 -2.776339,-13.914 c 0.535605,-1.11862 0.852058,-1.68763 0.925033,-1.7022 1.082527,-0.34246 2.235573,-0.64842 3.4639939,-0.89353 l 5.838041,-1.1649 0.116715,0.0779 0.0053,0.0269 c 0.386092,-0.0863 0.733912,-0.16703 1.186575,-0.2647 l 6.710485,-1.30315 0.02758,-0.0413 6.470493,-1.29109 c 0.06081,-0.0121 0.136155,0.11195 0.223611,0.36008 l 0.04865,-0.01 c -0.02912,-0.14596 0.296895,-0.35012 0.992647,-0.60277 l 0.340552,-0.0679 c 0.243252,-0.0485 0.454837,-0.002 0.632342,0.12677 0.236027,-0.21151 0.547427,-0.36217 0.924469,-0.43741 l 3.463881,-0.64058 0.65323,-0.13034 c 0.08555,-0.0495 0.171858,-0.0849 0.261418,-0.10275 l 0.243252,-0.0485 0.463778,-0.042 1.200041,-0.23945 0.0048,0.0243 0.09245,-0.0437 0.05844,0.2929 c 1.331853,-0.49809 2.937305,-0.94125 4.845529,-1.32201 l 1.021657,-0.20385 c 1.465134,-0.25952 2.555823,-0.43331 3.393809,-0.55073 0.117016,-0.13835 0.457696,-0.26838 1.023663,-0.38131 1.264907,-0.25239 1.921633,-0.25696 1.965316,-0.038 l 0.0059,0.0141 0.0894,-0.0431 -0.0272,-0.13632 0.506032,-0.25273 0.0973,-0.0194 0.01941,0.0973 c -0.09471,0.0189 -0.14584,0.0559 -0.161999,0.10979 l 0.123059,-0.0515 0.194375,0.46709 c 0.01508,0.0756 0.02429,0.1462 0.03009,0.21425 l 0.01844,0.029 -0.01583,0.0237 c 0.0089,0.16819 -0.0116,0.31004 -0.05482,0.42776 0.100971,0.0206 0.192698,0.03 0.265011,0.0157 l 0.291902,-0.0582 0.233544,-0.0972 -0.01941,-0.0973 c -0.401281,-0.10965 -0.627374,-0.35539 -0.70018,-0.72027 l -0.05825,-0.2919 c -0.01213,-0.0608 0.02923,-0.10701 0.126537,-0.12642 l 0.817348,-0.21368 c 0.170245,0.0292 0.272374,0.0974 0.291789,0.19471 0.333328,-0.23092 0.790677,-0.4107 1.362323,-0.52477 l 0.389202,-0.0777 c 0.839214,-0.16745 1.301311,-0.07 1.371691,0.28277 l 0.0973,-0.0194 c 0.06081,-0.0121 0.07792,-0.17995 0.04887,-0.51563 l 0.14595,-0.0291 c 0.145951,-0.0291 0.311314,0.0391 0.496098,0.20454 -0.02912,-0.14596 0.09741,-0.27238 0.379609,-0.37928 l 0.0973,-0.0194 c 0.102136,0.005 0.172648,0.10463 0.213903,0.31143 0.411214,-0.34763 1.065624,-0.61733 1.965654,-0.79692 l 2.149098,-0.36347 c 0.353027,-0.11154 0.668143,-0.19867 0.940198,-0.25295 l 1.206925,-0.22871 0.0094,-0.014 7.638102,-1.52408 3.327638,-0.56281 0.05836,0.0389 0.0097,0.0486 -0.16548,0.18478 0.0097,0.0487 0.243251,-0.0485 0.360194,-0.47657 0.05836,0.0389 0.04865,-0.01 -0.03894,0.0583 0.01941,0.0973 0.496324,-0.30138 0.08748,0.1849 c 0.177614,-0.12396 0.603328,-0.27217 1.27473,-0.45671 0.14341,0.21168 0.359854,0.28231 0.651756,0.22406 l 0.218928,-0.0437 -0.01891,-0.0948 -0.404325,0.12863 c -0.01915,-0.096 0.122473,-0.20749 0.412424,-0.33365 l 0.0017,-0.003 -0.0097,-0.0487 0.21051,-0.0304 c 0.02076,-0.008 0.03514,-0.0152 0.05707,-0.023 l 0.0059,0.0136 0.660109,-0.0959 z m -68.008381,13.97533 c -0.160572,0.0827 -0.223841,0.14582 -0.214129,0.19449 l 0.03882,0.1946 0.233545,-0.0972 0.0097,0.0486 -0.01953,0.15565 0.04866,-0.01 c 0.267579,-0.0534 0.540068,-0.20892 0.817461,-0.46664 l -0.01941,-0.0973 -0.14595,0.0291 z m 23.084584,-4.60619 -0.700745,0.54452 0.01941,0.0973 0.311204,0.29202 0.457381,-0.24303 0.194601,-0.0388 -0.04854,-0.24324 c -0.116714,-0.0779 -0.194488,-0.21413 -0.233318,-0.40873 z m 39.28231,-7.83715 -0.523094,0.3336 c 0.102756,0.12597 0.22781,0.17907 0.392853,0.14662 0.0056,-0.019 0.0105,-0.0333 0.01614,-0.0538 0.02568,-0.005 0.05015,-0.0162 0.07368,-0.0321 -0.0076,-0.0826 0.0091,-0.13619 0.06746,-0.14783 l 0.05727,-0.0114 c 0.01585,-0.0326 0.03105,-0.0677 0.04505,-0.10964 l -2.08e-4,-10e-4 c -0.03697,-0.0266 -0.06785,-0.0539 -0.0928,-0.0821 l -0.02383,0.005 -0.0084,-0.0421 c -0.0012,-0.002 -0.0031,-0.003 -0.0041,-0.005 z m -53.420136,10.75935 0.02912,0.14595 c 0.06315,0.18975 0.131215,0.27734 0.204195,0.26278 l 0.0973,-0.0194 0.136356,-0.33073 -0.0097,-0.0486 z m 49.277877,-9.73152 c -0.160573,0.0827 -0.21413,0.19448 -0.185008,0.34044 l 0.340552,-0.0679 c 0.170278,-0.034 0.279768,-0.11905 0.301723,-0.26256 -0.296757,0.034 -0.447563,0.0387 -0.457264,-0.01 z m 2.967669,-0.59216 0.0097,0.0487 c 0.18715,0.30413 0.46195,0.4137 0.82683,0.34089 l 0.0097,0.0486 c 0.01578,-0.003 0.03279,-0.0157 0.05008,-0.0369 -0.204192,-0.11654 -0.354172,-0.241 -0.448594,-0.37315 l -0.07806,0.0499 z m 1.43477,-0.035 5.03e-4,0.003 0.0017,-0.003 c -8.19e-4,-4e-5 -0.0013,5e-5 -0.0022,-1e-4 z m -36.185837,7.27253 -0.07789,0.11671 0.729417,0.61327 0.14595,-0.0291 -0.01941,-0.0973 0.243251,-0.0485 0.233544,-0.0972 -0.03882,-0.1946 -0.233544,0.0972 -0.116716,-0.0779 0.05848,-0.21402 c -0.335614,-0.0975 -0.595855,-0.13404 -0.778292,-0.0976 z m 43.347447,-8.64936 -0.05859,0.46697 0.505919,2.3e-4 -0.0097,-0.0486 -0.184668,-0.41844 0.03894,-0.0584 z m -81.2169349,16.35744 -0.136242,0.0778 0.0097,0.0486 c 0.05339,0.26758 0.199285,0.36494 0.466863,0.31154 l 0.04865,-0.01 0.07789,-0.11672 c -0.07297,0.0146 -0.231031,-0.0803 -0.466863,-0.31154 z m 16.4194889,-3.27628 c -0.124086,0.0754 -0.175191,0.13612 -0.165479,0.18479 l 0.01941,0.0973 0.476684,0.10722 0.194601,-0.0388 -0.01941,-0.0973 c -0.09967,-0.11924 -0.267463,-0.19957 -0.505805,-0.2532 z m -1.0606,0.26222 -0.233657,0.35015 0.01941,0.0973 0.194602,-0.0388 c 0.194598,-0.0388 0.318711,-0.17742 0.3699,-0.42792 l -0.05836,-0.0389 z m 14.19128,-2.78108 -0.457495,0.49599 0.116717,0.0779 c 0.218927,-0.0437 0.374642,-0.15064 0.486616,-0.35004 z m 38.312137,-7.6446 c -0.170278,0.034 -0.277348,0.13121 -0.301723,0.26256 l 0.02912,0.14594 0.243252,-0.0485 0.155771,-0.23344 -0.02912,-0.14594 z m 0.875706,-0.17473 c -0.250592,0.13851 -0.345519,0.29658 -0.311543,0.46686 0.05101,0.12894 0.160455,0.17034 0.330732,0.13635 l 0.04876,-0.26267 -0.05836,-0.0389 -0.0097,-0.0487 z m -57.88419,11.60055 -0.116829,0.17507 0.05836,0.0389 0.0097,0.0486 0.03894,-0.0584 0.0973,-0.0194 0.321024,0.0877 0.03894,-0.0584 -0.02912,-0.14595 c -0.0559,-0.09 -0.162911,-0.11926 -0.321024,-0.0877 z m 58.555474,-11.53215 c -0.406503,0.68816 -0.725297,1.0553 -0.944223,1.09898 l -0.389202,0.0776 -0.01941,-0.0973 c -0.710346,0.24289 -1.783103,0.50756 -3.23045,0.79635 l -2.383867,0.47567 -0.237882,0.0438 c -0.584921,0.1529 -1.487377,0.35106 -2.720083,0.59703 -0.178631,0.0357 -0.381468,0.0584 -0.595747,0.0752 l -0.0027,0.0949 -1.955721,0.33965 -2.675768,0.53391 c -0.851381,0.16988 -1.274617,0.20375 -1.294031,0.10645 l -0.08748,-0.1849 c 0.133844,-0.15317 0.189861,-0.31612 0.155885,-0.48639 -0.01213,-0.0608 -0.06807,-0.0876 -0.165366,-0.0682 -0.170278,0.034 -0.260409,0.34286 -0.272827,0.91443 l -0.04864,0.01 c -0.459666,-0.0854 -0.710115,-0.26302 -0.768359,-0.55492 l -0.145951,0.0291 c -0.07297,0.0146 -0.114381,0.12397 -0.136355,0.33073 l 0.165252,0.32113 -0.03894,0.0584 -0.340552,0.0679 -0.826943,-0.0879 -0.0973,0.0194 c -0.209274,0.21881 -0.364993,0.32576 -0.486616,0.35003 l -0.243252,0.0485 -1.381624,0.17451 -0.379495,0.12631 0.06818,-0.16537 c -0.690927,0.34022 -1.170178,0.53702 -1.449916,0.59284 l -0.11428,-0.0763 c -0.125866,0.0601 -0.28819,0.10599 -0.479227,0.14411 l -0.145951,0.0291 -0.05836,-0.0389 -1.512722,0.30184 c -0.14834,0.0622 -0.305053,0.11146 -0.472233,0.14481 l -0.0973,0.0194 -2.588175,0.46584 -0.282195,0.1069 -0.0097,-0.0486 0.03905,-0.31132 -0.04865,0.01 c -0.493924,0.37679 -1.260223,0.65616 -2.306206,0.86487 l -3.862791,0.66959 -0.770215,0.19637 0.0015,0.008 -0.126394,0.0242 -0.01958,0.005 -7.27e-4,-9.3e-4 -1.968507,0.37592 c -0.347396,0.0802 -0.721332,0.16184 -1.144403,0.24626 l -0.01599,-0.0247 -2.669474,0.50999 -5.93534,1.18431 -0.330846,0.11661 c -0.177472,-0.19223 -0.513085,-0.28968 -1.021431,-0.30206 l 0.02912,0.14595 c 0.01456,0.0729 0.123996,0.11437 0.330732,0.13636 l 0.01941,0.0973 -0.411921,0.10906 c -0.01241,0.0117 -0.02409,0.0245 -0.04045,0.0323 l -1.702762,0.33976 c -0.01432,-0.008 -0.02393,-0.016 -0.03749,-0.0241 l -0.872249,0.15508 -0.03894,0.0584 -0.05836,-0.0389 -0.100631,-0.69183 -0.01093,0.006 -0.04865,0.01 -0.252952,-3.1e-4 0.0097,0.0486 0.243026,0.45739 0.0097,0.0486 c 0.0267,0.13379 -0.386861,0.27955 -1.226078,0.447 l -0.243252,0.0485 c -0.912195,0.18201 -1.374342,0.211 -1.401039,0.0772 l -0.0097,-0.0486 0.05858,-0.46698 c -0.08268,-0.034 -0.347801,-0.0317 -0.807527,0.009 l -0.116716,-0.0779 -0.03894,0.0584 0.0097,0.0486 0.291789,0.19472 c -0.206765,0.0412 -0.326049,0.2674 -0.370014,0.68087 l -0.04865,0.01 -3.736369,0.79613 c -0.184419,0.0368 -0.397668,0.057 -0.637289,0.0597 -0.217271,0.0761 -0.484841,0.15441 -0.846546,0.23638 l -0.812132,0.10777 c -0.03316,0.008 -0.06331,0.0168 -0.09751,0.0237 l -1.070307,0.21357 -0.102633,-0.068 -2.451296,0.32524 c -1.5324859,0.30579 -2.2964989,0.91352 -2.3163659,1.82806 0.07281,0.36488 -0.136471,0.58369 -0.622973,0.68076 0.177523,0.0658 0.291789,0.19472 0.330619,0.38932 l 0.145951,-0.0291 0.07789,-0.11673 -0.126423,-0.12653 -0.0097,-0.0486 0.04865,-0.01 c 0.121627,-0.0243 0.291731,0.32118 0.505466,1.01206 l 0.572628,3.12333 -0.04866,0.01 -0.301609,0.01 c -0.133789,0.0267 -0.160625,0.2091 -0.09753,0.52533 l 0.155658,0.0195 0.272488,-0.15555 c 0.104581,0.017 0.1726469,0.10463 0.2041959,0.26279 l 0.0097,0.0486 0.339536,2.20868 0.16514,0.5741 c -0.119254,0.16291 -0.301723,0.26256 -0.544974,0.31109 0.01456,0.0729 0.06807,0.0876 0.165366,0.0682 l 0.379495,-0.12632 0.05836,0.0389 0.145613,0.72975 0.378817,1.39146 0.407489,2.54923 c 0.121343,0.60812 0.378986,1.012 0.797255,1.20677 l 1.323266,-0.21345 0.486503,-0.0971 1.693055,-0.38841 c 0.471851,-0.0775 0.82348,-0.12524 1.09217,-0.15153 l 0.01216,-0.0182 1.618024,-0.31549 c 0.279503,-0.12633 0.537201,-0.21521 0.770852,-0.26183 0.333778,-0.0344 0.585239,-0.046 0.756259,-0.0366 l 8.784004,-1.7153 2.082257,-0.46608 0.05836,0.0389 0.0046,0.0233 2.452193,-0.51354 c 0.450011,-0.0898 1.160267,-0.143 2.140502,-0.17416 0.649555,-0.29402 1.751524,-0.60243 3.308334,-0.91307 1.080375,-0.21558 2.209387,-0.41741 3.371945,-0.60748 l 0.432489,-0.10105 c 0.159275,-0.0318 0.29311,-0.0417 0.402863,-0.033 0.144344,-0.0227 0.290734,-0.0446 0.436225,-0.0665 -0.0011,-0.006 -4.69e-4,-0.0104 -0.0017,-0.0171 l 0.03894,-0.0584 8.757059,-1.74734 0.05836,0.0389 0.04865,-0.01 c 0.03883,0.19461 -0.119337,0.35264 -0.467201,0.44734 l 0.01941,0.0973 0.632454,-0.1262 0.0097,0.0486 c 0.04126,0.20677 -0.160738,0.46207 -0.603558,0.77806 l 0.01941,0.0973 c 0.461394,0.0767 1.030179,0.0379 1.703663,-0.0896 -0.04612,-0.17151 -0.09876,-0.38111 -0.15802,-0.63349 l -0.436166,-0.0548 -0.194601,0.0388 -0.0194,-0.0973 0.146064,-0.28208 -0.174961,-0.36979 3.137947,-0.62613 2.544435,-0.5583 10.654422,-2.12593 c 0.0371,-0.008 0.07301,0.0287 0.108402,0.0864 0.05547,-0.0797 0.122587,-0.13248 0.207825,-0.14949 l 0.444528,-0.0539 -0.0067,-0.0334 c 0.03512,-0.007 0.09651,-0.002 0.17756,0.0128 l 0.02677,-0.003 0.136243,-0.0778 0.05836,0.0389 0.0097,0.0486 c -0.02348,0.0118 -0.03917,0.0224 -0.06072,0.0337 0.08426,0.021 0.183566,0.0494 0.295892,0.0833 0.0084,-0.0369 0.01732,-0.0733 0.01779,-0.11685 l 0.39891,-0.029 0.934177,-0.38875 0.145951,-0.0291 0.0092,0.0461 c 0.102431,-0.079 0.196245,-0.13769 0.272992,-0.15301 l 0.05836,0.0389 0.0097,0.0487 -0.01024,0.0832 0.356691,-0.12177 c 0.146921,-0.11497 0.299689,-0.19153 0.461223,-0.22376 l 0.194602,-0.0388 c 0.15811,-0.0315 0.355123,0.005 0.573983,0.0878 -0.01941,-0.0973 -0.0048,-0.15081 0.06818,-0.16537 l 0.992309,0.15611 -0.03883,-0.1946 -0.301609,0.01 -0.01941,-0.0973 0.04864,-0.01 1.060486,-0.009 0.282195,-0.10689 0.0097,0.0486 c 0.0267,0.13379 0.291791,0.19472 0.797708,0.19494 l -0.0097,-0.0487 c -0.04369,-0.21892 -0.201743,-0.31386 -0.457156,-0.26289 l -0.01941,-0.0973 0.710341,-0.24292 c 0.158111,-0.0315 0.269948,0.0852 0.320911,0.34067 l 0.0973,-0.0194 0.214243,-0.44745 0.836763,-0.11638 0.389203,-0.0777 4.768963,-0.98477 0.01338,-0.0201 1.946013,-0.38829 c 0.02666,-0.005 0.05242,-0.008 0.07864,-0.0125 l 0.480829,-0.0991 0.05836,0.0389 0.01345,0.0674 c 0.186717,0.0386 0.361868,0.11466 0.526389,0.22957 l 0.04865,-0.01 -0.0097,-0.0487 c -0.01456,-0.073 -0.09724,-0.10707 -0.223724,-0.10711 l -0.05836,-0.0389 -0.01941,-0.0973 2.26715,-0.55354 2.481167,-0.49508 c 0.194604,-0.0388 0.406336,-0.30872 0.642501,-0.83643 l -0.368885,-1.84871 -1.620809,-8.88349 -0.02913,-0.14596 c -0.465959,-2.33521 -0.9664,-3.70239 -1.477004,-4.10638 l -2.549232,0.40749 -4.439851,0.8859 c -0.176451,0.10191 -0.41487,0.18396 -0.721995,0.24524 l -3.240045,0.49474 -0.583803,0.1165 -0.233545,0.0972 -0.05836,-0.0389 0.03905,-0.31132 -0.08737,-0.43785 0.03894,-0.0584 -0.0097,-0.0486 z m 4.419866,-0.84608 -0.0122,0.11836 0.204738,-0.0409 c -0.06752,-0.0252 -0.131389,-0.0513 -0.192524,-0.0775 z m -16.678788,3.4081 c -0.122059,0.0442 -0.232424,0.11194 -0.328657,0.20417 l 0.0648,0.13725 0.194601,-0.0388 0.116828,-0.17508 c -0.0095,-0.0477 -0.02632,-0.0895 -0.04756,-0.12751 z m -9.366264,2.00592 -0.136357,0.33072 0.583804,-0.11648 0.311318,0.0391 -0.0097,-0.0486 c -0.02426,-0.12163 -0.277204,-0.18499 -0.749058,-0.20465 z m -31.977887,6.43131 -0.155771,0.23343 0.0097,0.0486 0.603219,-0.0192 c 0.170274,-0.0339 0.277341,-0.1312 0.292015,-0.3112 l -0.408625,-0.0194 z m 14.249638,-2.74213 -0.02935,0.35996 0.05836,0.0389 0.0973,-0.0194 c -0.03219,-0.16135 -0.01474,-0.25874 0.04665,-0.29966 l -0.0076,-0.0117 -0.0097,-0.0486 c -0.0012,-0.006 -4.14e-4,-0.0129 -1.87e-4,-0.0195 z m -6.207828,1.33985 c -0.121623,0.0242 -0.243307,0.17502 -0.3699,0.42793 l 0.194601,-0.0388 c 0.291902,-0.0582 0.423294,-0.16032 0.389315,-0.33061 z m -10.727964,3.4053 c 0.705431,-0.14076 1.520239,-0.11365 2.441999,0.0692 l 0.04865,-0.01 -0.145838,-0.22383 0.03894,-0.0583 0.04865,-0.01 c 0.462177,-0.0922 1.184485,0.10509 2.188813,0.575 l 0.311204,0.29201 0.01941,0.0973 -1.284323,0.15509 -2.023899,0.50502 0.0097,0.0486 0.457264,0.01 0.233544,-0.0972 c 0.05825,0.2919 0.291678,0.44768 0.700295,0.46731 l 0.07777,0.13625 c 0.150862,-0.13126 0.299266,-0.21148 0.457381,-0.24303 l 0.340552,-0.0679 c 0.0973,-0.0194 0.228643,0.005 0.369675,0.078 l 0.486729,-0.603 c -0.03155,-0.15811 -0.02423,-0.2481 0.04876,-0.26266 0.486504,-0.0971 0.909514,0.37499 1.293354,1.41132 0.07255,0.93403 -0.275509,1.47142 -1.041749,1.6243 l -0.291902,0.0582 -0.0097,-0.0486 0.03905,-0.31132 -0.476795,0.14573 -0.05836,-0.0389 -0.0097,-0.0486 c 0.158366,-0.60071 0.272827,-0.91443 0.321477,-0.92414 l 0.04865,-0.01 0.272261,0.35036 0.04866,-0.01 c 0.194599,-0.0388 0.279769,-0.11905 0.253072,-0.25284 l -0.145725,-0.4768 0.04865,-0.01 0.301609,-0.01 0.194602,-0.0388 c -0.01213,-0.0608 -0.12157,-0.10225 -0.330732,-0.13636 l -0.428145,0.13601 -0.04865,0.01 -0.223724,-0.10711 c -0.07297,0.0146 -0.08759,0.0681 -0.06818,0.16537 l 0.09719,0.23354 -0.04866,0.01 c -0.269919,-0.1485 -0.520424,-0.19969 -0.73935,-0.15601 l -0.564389,0.2138 c -0.07766,-0.38922 -0.722111,-0.64002 -1.926034,-0.77921 l -0.34044,-0.185 c -0.02196,0.1435 -0.131447,0.22858 -0.301723,0.26256 l -0.291902,0.0582 c -0.170276,0.034 -0.277283,0.005 -0.321024,-0.0877 -0.01213,-0.0608 0.02923,-0.10702 0.126536,-0.12643 l 0.03894,-0.0583 -0.01941,-0.0973 -0.0973,0.0194 c -0.119254,0.16291 -0.228747,0.24799 -0.350373,0.27226 l -0.0973,0.0194 -0.116715,-0.0779 c -0.02912,-0.14596 0.194773,-0.41826 0.6425,-0.83643 l -0.01941,-0.0973 -0.204312,-0.01 c -0.27249,0.15553 -0.382036,0.36711 -0.331071,0.62252 l -0.04864,0.01 c -0.201826,-0.12414 -0.352604,-0.18258 -0.43774,-0.1656 l -0.03894,0.0584 0.06795,0.34055 0.126424,0.12654 c -0.211702,0.20664 -0.32125,0.4182 -0.331071,0.62251 l 0.106896,0.2822 c -0.197116,0.21639 -0.404077,0.70033 -0.623312,1.43964 0.243194,0.0779 0.379382,0.12666 0.389089,0.1753 l 0.02912,0.14596 c -0.167935,0.23586 -0.330958,0.36956 -0.476909,0.39868 l 0.09719,0.23354 0.03883,0.1946 0.04865,-0.01 0.817348,-0.21367 c 0.792964,-0.0824 1.211294,-0.0141 1.254976,0.20487 l 0.21379,0.56439 -0.175186,0.13613 c 0.0267,0.1338 0.311258,0.16554 0.875593,0.0782 l 0.243252,-0.0485 -0.0097,-0.0487 -0.826716,-0.59385 -0.0097,-0.0487 0.04865,-0.01 c 1.082469,-0.21599 2.697441,-0.045 4.854649,0.49835 l 0.02912,0.14596 -0.06818,0.16537 0.0097,0.0486 0.291902,-0.0582 c 0.486501,-0.0971 0.992219,0.34584 1.526898,1.31413 l 0.12631,0.3795 0.0095,0.55457 0.233432,0.15577 0.02912,0.14595 c 0.01941,0.0973 -0.05602,0.16294 -0.214129,0.19449 l 0.213791,0.56439 c 0.20871,1.04597 -0.180888,2.009 -1.149323,2.85987 l -0.282195,0.10689 -0.0973,0.0194 0.01941,0.0973 c 0.0973,-0.0194 0.153245,0.007 0.165367,0.0682 -0.143581,0.16777 -0.277398,0.2577 -0.399023,0.28196 l -0.05836,-0.0389 -0.0097,-0.0486 c -0.08251,-0.41353 0.09273,-0.67614 0.554908,-0.76836 -0.02427,-0.12162 -0.282081,-0.14606 -0.778293,-0.0976 l -0.194601,0.0388 -0.953591,0.29145 0.0097,0.0486 c 0.291902,-0.0582 0.474257,0.095 0.544635,0.44778 l 0.08737,0.43786 0.05836,0.0389 0.0097,0.0486 c -0.732326,0.44964 -1.493771,0.75334 -2.2965,0.91352 -2.213591,0.44169 -3.974372,-0.0164 -5.282342,-1.37418 -0.201768,-0.25062 -0.396173,-0.65446 -0.592947,-1.19695 -0.109463,0.0218 -0.228577,-0.13145 -0.350034,-0.48662 0.06363,-0.88533 0.404386,-1.39597 1.012514,-1.5173 l 0.340552,-0.0679 c 0.450014,-0.0898 1.174549,0.56239 2.159013,1.9468 0.634568,0.5816 1.420116,0.77898 2.344472,0.59454 1.641948,-0.32763 2.471687,-1.04965 2.501374,-2.1685 l -0.02901,-0.39891 c -0.208712,-1.04599 -1.169243,-1.54989 -2.879174,-1.49958 l -1.585708,-0.34123 c -1.223483,0.0797 -2.142843,-0.0277 -2.743495,-0.31256 -0.586033,-0.33835 -0.943462,-0.60849 -1.069856,-0.79827 l -0.01941,-0.0973 0.14595,-0.0291 -0.01941,-0.0973 -0.04866,0.01 -0.272486,0.15554 c -0.381695,-0.39175 -0.641711,-0.93428 -0.777615,-1.61539 L 16.493,160.38016 c -0.296079,-1.48384 0.45123,-2.8091 2.239496,-3.98797 0.654438,-0.33292 1.218825,-0.54672 1.693168,-0.64137 z m 29.856688,-5.90689 1.031251,0.0977 0.233545,-0.0972 c 0.226065,0.30901 0.371877,0.59608 0.427694,0.87582 l -0.321138,0.16525 c -0.498633,0.0362 -0.778294,-0.0976 -0.836537,-0.38953 l -0.0097,-0.0486 0.107121,-0.22372 c -0.07292,-0.11191 -0.233431,-0.15577 -0.476683,-0.10722 l -0.535154,0.10678 -0.0097,-0.0487 c 0.04142,-0.17268 0.170386,-0.28693 0.389315,-0.33062 z m -14.488092,2.94148 c 2.298727,-0.45868 3.522127,-0.34868 3.658031,0.33242 l 0.02912,0.14596 c 0.06552,0.3284 -0.06112,0.70777 -0.379946,1.13814 l -0.768586,-0.049 -0.233544,0.0972 0.01941,0.0973 0.0973,-0.0194 0.0097,0.0487 0.330844,-0.1166 0.291902,-0.0582 0.0097,0.0486 c 0.02913,0.14596 -0.282283,0.29661 -0.924469,0.4374 l -0.340552,0.0679 -0.116716,-0.0779 -0.0097,-0.0486 c 0.01224,-0.12892 0.143605,-0.23101 0.399023,-0.28197 l -0.0097,-0.0487 c -0.605648,0.007 -1.021548,-0.0491 -1.245268,-0.15622 0.03141,0.47431 -0.107349,0.72965 -0.399249,0.78789 l -0.992535,0.34981 -0.05836,-0.0389 1.727932,8.65976 -0.593626,0.32081 -0.04865,0.01 -0.05836,-0.0389 -0.04865,0.01 0.0097,0.0486 c 0.08751,0.12167 0.196942,0.16306 0.330732,0.13636 l 0.418438,-0.18467 0.05836,0.0389 0.11649,0.5838 c 0.01456,0.0729 -0.02924,0.10701 -0.126536,0.12642 0.106981,0.0925 0.204194,0.26279 0.301383,0.49633 0.09708,0.48651 0.06047,0.74674 -0.09764,0.77829 l -1.089722,0.11627 -0.145951,0.0291 0.0097,0.0486 c 0.162964,-0.007 0.257812,0.0244 0.272375,0.0974 l -0.146064,0.28208 0.04865,-0.01 0.583917,-0.36946 0.243252,-0.0485 0.116715,0.0779 c -0.267748,0.43282 -0.537837,0.66377 -0.817573,0.71959 l -0.194601,0.0388 c -1.026399,-0.0735 -1.631817,-0.57231 -1.818687,-1.50884 l -0.05825,-0.2919 c -0.05096,-0.25541 0.01964,-0.40861 0.214242,-0.44745 l 0.194601,-0.0388 c -0.345295,-0.20934 -0.554343,-0.49645 -0.632002,-0.88565 -0.05096,-0.25541 -0.04595,-0.61052 0.03939,-1.07019 -0.354719,-0.89038 -0.566025,-1.56909 -0.660673,-2.04343 L 32.36803,156.1517 c -0.250478,-0.11443 -0.924244,-0.0685 -2.043201,0.15475 l -0.632455,0.1262 c -1.152988,0.17949 -1.758581,0.06 -1.838666,-0.34134 -0.06081,0.0121 -0.11186,-0.0535 -0.145838,-0.22384 l -0.03883,-0.1946 c -0.09465,-0.47433 -0.03855,-0.82699 0.195053,-1.05066 0.413582,-0.20899 0.836874,-0.36934 1.274729,-0.4567 l 1.907071,-0.32995 0.03894,-0.0584 0.0097,0.0486 -0.06818,0.16537 c 0.291816,0.13148 0.452301,0.23857 0.466862,0.31154 l -0.01953,0.15566 0.04865,-0.01 0.875932,-0.68066 0.145838,0.22383 c 0.308948,-0.0996 0.447672,-0.29168 0.389429,-0.58357 l 0.14595,-0.0291 0.0097,0.0486 0.574097,-0.16514 0.632454,-0.12619 z m 5.692089,-1.13578 0.04865,-0.01 c 0.960842,-0.19172 1.668415,0.3121 2.120296,1.49925 l 0.06795,0.34055 c 0.05096,0.25542 0.05813,0.54487 0.01908,0.85618 l -0.301609,0.01 c -0.326047,0.26741 -0.457494,0.49598 -0.418664,0.69058 l 0.116716,0.0779 c 0.255467,-0.17745 0.447674,-0.29168 0.593625,-0.3208 l 0.05836,0.0389 0.0096,0.30162 0.417761,1.33308 c 0.12377,0.62029 0.01417,0.95833 -0.302061,1.02143 0.31123,0.22877 0.495986,0.4575 0.544523,0.70075 l 0.03883,0.1946 c 0.04611,0.23108 0.03146,0.34783 -0.02935,0.35997 0.08993,0.13381 0.170107,0.34545 0.223498,0.61303 l 0.320347,1.60546 c -0.255415,0.0509 -0.386812,0.15305 -0.399024,0.28197 l 0.01941,0.0973 0.04865,-0.01 c 0.163052,-0.19694 0.292015,-0.3112 0.389316,-0.33061 l 0.631889,1.13859 c 0.600477,0.66429 1.682783,0.82774 3.239593,0.5171 l 0.476795,-0.14572 0.05836,0.0389 0.03882,0.1946 -0.03894,0.0583 0.0097,0.0486 0.155658,0.0195 0.136243,-0.0778 -0.02912,-0.14595 c -0.01456,-0.073 -0.09724,-0.10706 -0.223723,-0.10711 l -0.01941,-0.0973 0.145951,-0.0291 c 0.209133,0.0974 0.408562,0.14613 0.583691,0.13648 l 0.0097,0.0486 c -0.216531,0.11907 -0.311429,0.2139 -0.301722,0.26256 l 0.0097,0.0486 c 0.284679,-0.22121 0.486616,-0.35002 0.632568,-0.37915 l 0.272374,0.0974 c 0.05356,-0.11184 0.201963,-0.19205 0.457381,-0.24302 l -0.0097,-0.0487 c -0.389148,-0.0488 -0.858576,-0.0564 -1.420454,-0.0201 l -0.0097,-0.0486 c -0.03397,-0.17028 0.350428,-0.39875 1.177542,-0.69025 -0.12157,-0.10225 -0.192061,-0.20195 -0.213904,-0.31143 -0.02899,-0.46214 -0.01428,-0.70537 0.05869,-0.71993 l 0.262668,0.0488 -0.0097,-0.0487 -0.106895,-0.28218 -0.116489,-0.58381 -0.368546,-2.60759 -0.233205,-0.66169 0.03894,-0.0583 0.04865,-0.01 0.369676,0.078 0.03894,-0.0583 -0.0097,-0.0486 c -0.02913,-0.14596 -0.218756,-0.33575 -0.56405,-0.5451 l -0.155546,-0.27248 c -0.04368,-0.21892 0.04151,-0.3624 0.2726,-0.40851 l 0.04864,-0.01 c -0.26992,-0.14849 -0.449762,-0.47936 -0.554117,-1.00236 l -0.213451,-1.32327 0.03894,-0.0583 0.505918,2.3e-4 1.099655,-0.57354 c -0.223726,-0.10711 -0.34772,-0.2215 -0.369561,-0.33095 l -0.04865,0.01 c 0.0024,0.20189 -0.0269,0.3089 -0.08771,0.32102 l -0.04865,0.01 c -0.206766,0.0412 -0.566703,-0.0513 -1.070081,-0.29235 -0.133791,0.0267 -0.199457,0.0145 -0.214016,-0.0585 l -0.126198,-0.63245 c -0.01941,-0.0973 0.170359,-0.2237 0.583917,-0.36945 l 0.437853,-0.0874 0.116715,0.0779 c -0.13636,0.33072 -0.277512,0.51066 -0.399135,0.53492 l -0.145951,0.0291 c -0.07297,0.0146 -0.11186,-0.0535 -0.145838,-0.22384 l -0.07789,0.11672 0.301497,0.24336 -0.136243,0.0778 0.817122,0.29224 0.116828,-0.17507 c -0.296699,-0.0926 -0.437738,-0.16558 -0.447447,-0.21424 l -0.0097,-0.0486 c -0.01213,-0.0608 0.02923,-0.10701 0.126536,-0.12642 l 1.01195,-0.25251 c 0.4865,-0.0971 0.744315,-0.0727 0.768585,0.049 -0.03175,0.28456 -0.0683,0.41832 -0.116942,0.42802 l -0.466975,-0.0586 0.01941,0.0973 c 0.07777,0.13624 0.199342,0.23846 0.359854,0.28231 l 0.0973,-0.0194 c 0.06081,-0.0121 0.08759,-0.0681 0.06818,-0.16536 l 0.03894,-0.0584 0.04865,-0.01 0.126422,0.12653 -0.107349,0.72965 0.05836,0.0389 0.0097,0.0487 c -0.430662,0.31356 -0.652096,0.53481 -0.681331,0.64182 l 0.116715,0.0779 0.535154,-0.10678 -0.0097,-0.0486 -0.184781,-0.16548 -0.0097,-0.0487 0.291902,-0.0582 c 0.182241,0.40627 0.30855,0.78577 0.37893,1.13848 0.09222,0.46218 0.03612,0.81484 -0.146403,1.04096 0.255412,-0.0509 0.425607,0.10475 0.495986,0.4575 l 0.330054,1.65411 c 0.623617,3.31551 0.155628,5.53355 -1.403975,6.65414 -0.481764,0.37436 -1.223741,0.64888 -2.208907,0.84546 -0.138703,0.12883 -0.647127,0.30619 -1.517981,0.50524 -1.727086,0.34461 -3.149856,0.0594 -4.27073,-0.8678 l 0.243364,-0.30151 0.554569,-0.009 0.291902,-0.0582 0.467087,-0.19438 c 0.02184,0.10947 0.445048,0.13885 1.284212,0.0979 l 0.165366,0.0682 0.03894,-0.0584 -0.01941,-0.0973 -0.252847,-0.25308 -0.282194,0.10689 -1.8486,0.11593 -0.145951,0.0291 c -0.231091,0.0461 -0.442765,0.1895 -0.622859,0.42779 l -0.0973,0.0194 c -0.121628,0.0243 -0.401196,-0.29935 -0.855727,-0.99276 l -0.0097,-0.0486 c -0.01456,-0.0729 0.03655,-0.13375 0.165479,-0.18478 l 0.710227,0.0101 0.116828,-0.17508 -0.02912,-0.14594 c -0.02428,-0.12164 -0.274778,-0.17283 -0.73935,-0.15601 -0.126425,-0.12653 -0.204196,-0.26277 -0.233318,-0.40873 l -0.369787,0.17496 c -0.12163,0.0243 -0.325708,-0.49147 -0.612249,-1.54721 l -0.621167,-3.36658 -0.136016,-0.42815 0.03894,-0.0583 c 0.398855,0.0975 0.77829,0.0976 1.118841,0.0298 l 0.04865,-0.01 c 0.41353,-0.0825 0.681161,-0.26239 0.798048,-0.56394 -0.321142,0.16523 -0.651984,0.28186 -0.992536,0.3498 l -0.389202,0.0777 c -0.425692,0.085 -0.642158,0.0775 -0.661576,-0.0198 l -0.126198,-0.63245 c -0.05582,-0.27974 0.01242,-0.50835 0.214355,-0.7004 -0.121458,-0.35518 -0.286738,-0.61307 -0.505579,-0.75911 -0.05096,-0.25541 0.04396,-0.41347 0.311543,-0.46686 l 0.437853,-0.0874 c 0.104357,0.523 0.383952,0.78337 0.865546,0.78845 l 0.204312,0.01 c 0.243249,-0.0485 0.350374,-0.27226 0.321363,-0.67117 l -0.01941,-0.0973 c -0.13379,0.0267 -0.304121,0.18715 -0.515851,0.45705 l -0.0973,0.0194 c -0.07297,0.0145 -0.410963,-0.22153 -1.001791,-0.71068 -0.111864,-0.0535 -0.345348,-0.0829 -0.671285,-0.0684 l -0.0097,-0.0487 c 0.274917,-0.14337 0.40873,-0.23332 0.399023,-0.28196 l -0.0097,-0.0487 c -0.194604,0.0388 -0.296757,0.0339 -0.311317,-0.039 0.02438,-0.13133 0.107121,-0.22372 0.253072,-0.25285 l -0.01941,-0.0973 -0.0973,0.0194 -0.165478,0.18478 -0.01941,-0.0973 c -0.07503,-0.81972 0.195166,-1.30363 0.827621,-1.42983 z m 14.205897,-2.83458 c 0.535154,-0.10678 1.019145,-0.0263 1.459284,0.2147 l 0.04865,-0.01 -0.0097,-0.0486 c -0.09724,-0.10707 -0.184781,-0.16549 -0.282082,-0.14606 l -0.01941,-0.0973 1.196843,-0.33998 0.875707,-0.17475 c 2.164939,-0.43197 3.799237,0.026 4.922374,1.34483 0.35977,0.47204 0.612475,1.04131 0.748379,1.72241 0.09222,0.46218 0.06293,0.69566 -0.05869,0.71993 l -0.321138,0.16526 c 0.01456,0.0729 0.06807,0.0876 0.165367,0.0682 l 0.223836,-0.14584 0.05836,0.0389 0.0097,0.0486 c 0.05582,0.27975 -0.02698,0.56186 -0.233883,0.85607 0.0973,-0.0194 0.16051,0.0438 0.184781,0.16548 0.03397,0.17027 -0.04396,0.41347 -0.204647,0.74905 l -0.04865,0.01 -0.301496,-0.24337 c -0.223811,0.0826 -0.420977,0.42548 -0.60367,1.03103 l -0.07789,0.11671 0.0973,-0.0194 0.272488,-0.15555 0.0973,-0.0194 0.116716,0.0779 c -0.647386,0.87533 -1.464872,1.40521 -2.462204,1.60422 l -0.0096,-0.30162 c -0.01941,-0.0973 -0.284483,-0.22146 -0.787888,-0.39924 l -0.01941,-0.0973 c -0.0097,-0.0487 0.09005,-0.11913 0.31143,-0.21391 l -0.0097,-0.0487 c -0.0973,0.0194 -0.479111,-0.1194 -1.147855,-0.42859 l -0.301609,0.01 0.126423,0.12653 -0.03894,0.0584 -0.778405,0.15532 c 0.05339,0.26757 0.199285,0.36494 0.466863,0.31155 l 0.80764,-0.26233 c 0.170278,-0.034 0.321047,0.0245 0.43774,0.16559 l 0.0097,0.0486 c 0.01941,0.0973 -0.04385,0.16052 -0.165479,0.18478 l -0.43774,-0.16559 -0.0973,0.0194 -0.07789,0.11671 0.0097,0.0487 0.768584,0.049 0.01941,0.0973 -0.885639,0.632 -0.0973,0.0194 -0.252953,-3.1e-4 0.0097,0.0486 0.243138,0.20442 0.0097,0.0486 -0.07789,0.11671 -0.846471,0.0677 c -0.364882,0.0728 -0.853921,0.41067 -1.469557,1.00145 l -0.14595,0.0291 0.01941,0.0973 0.155659,0.0195 0.476796,-0.14572 0.05836,0.0389 0.09707,0.4865 0.456365,2.03361 c 0.325199,1.62978 -0.0011,2.52959 -0.974137,2.72374 -0.705429,0.14075 -1.254974,-0.20488 -1.672961,-1.03204 l -0.184555,-0.6714 0.03894,-0.0583 0.04865,-0.01 c 0.01941,0.0973 0.243166,0.14119 0.680992,0.11705 l 0.194601,-0.0388 0.642275,-0.33051 -0.0097,-0.0486 -0.681105,0.13591 c -0.586232,0.10432 -0.899974,0.0531 -0.943659,-0.16582 l 0.06818,-0.16537 -0.155546,-0.27249 0.184893,-0.0875 c -0.330448,-0.76874 -0.573306,-1.60557 -0.74804,-2.48127 l -0.611232,-3.82385 0.04865,-0.01 c 0.381754,0.2653 0.632228,0.37972 0.778179,0.3506 l 0.194601,-0.0388 0.07789,-0.11672 c -0.0097,-0.0486 -0.211562,-0.10954 -0.593398,-0.18512 l -0.0097,-0.0486 0.165478,-0.18479 c -0.170217,-0.0925 -0.342895,-0.13393 -0.525333,-0.0975 l -0.04866,0.01 -0.233543,0.0972 -0.05836,-0.0389 -0.126196,-0.63246 0.07789,-0.11671 0.817348,-0.21368 0.525221,0.35049 c 0.162997,-0.0705 0.382002,-0.30387 0.671623,-0.69047 -0.403627,-0.31152 -0.612701,-0.53539 -0.641824,-0.68134 l -0.05825,-0.2919 -0.04865,0.01 -0.418439,0.18467 -0.05836,-0.0389 -0.0097,-0.0487 1.14e-4,-0.25295 -0.145951,0.0291 c -0.243252,0.0485 -0.355173,0.12144 -0.36008,0.2236 l 0.778179,0.35061 -0.126536,0.12642 -0.145951,0.0291 -0.778293,-0.0976 0.0097,0.0486 0.262554,0.30172 0.03894,-0.0584 0.145951,-0.0291 0.583691,0.13647 0.01941,0.0973 -0.194601,0.0388 -0.457381,0.24302 -0.486503,0.0971 -0.378705,-1.64441 c -0.01698,-0.0851 0.05119,-0.25049 0.204535,-0.49609 -0.0973,0.0194 -0.201855,-0.0609 -0.301497,-0.24338 -0.04368,-0.21892 0.04151,-0.36239 0.2726,-0.4085 l -0.06818,0.16537 0.0973,-0.0194 c 0.146009,-0.15561 0.313884,-0.26499 0.496324,-0.30139 l -0.0097,-0.0487 c -0.0559,-0.09 -0.162911,-0.11925 -0.321024,-0.0877 l -0.340552,0.0679 -0.0097,-0.0487 c 0.401616,-0.64924 1.099881,-1.07944 2.121539,-1.2833 z m 10.299253,-2.00448 0.145951,-0.0291 c 0.76624,-0.1529 1.405781,0.20008 1.925922,1.03215 l 0.116602,0.33085 c 0.04854,0.24325 -2.85e-4,0.63239 -0.117284,1.1869 0.07297,-0.0146 0.17265,0.10463 0.272262,0.35038 l 0.281517,1.41086 c 0.0097,0.0486 -0.107095,0.16048 -0.340666,0.32091 l -0.292467,1.32304 0.04865,-0.01 c 0.389202,-0.0777 0.525558,-0.40839 0.409069,-0.99219 l 0.194714,-0.29179 0.04864,-0.01 c 0.169883,0.85139 0.05779,1.30374 -0.331409,1.3814 l 0.116716,0.0779 c 0.10221,-0.12156 0.201963,-0.19207 0.311429,-0.2139 l 0.05836,0.0389 0.0097,0.0487 c 0.05824,0.2919 -0.03426,0.46212 -0.253186,0.50581 l 0.0097,0.0487 c 0.296754,-0.034 0.452415,-0.0144 0.466976,0.0586 l 0.03883,0.1946 c -0.02196,0.14349 -0.131446,0.22857 -0.301722,0.26255 l -0.204312,-0.01 0.0097,0.0486 0.301497,0.24336 -0.107121,0.22373 0.05836,0.0389 0.0097,0.0486 c 0.158112,-0.0315 0.221409,-0.158 0.175299,-0.38908 l 0.04865,-0.01 0.116716,0.0779 0.165026,0.82706 -0.07789,0.11671 c -0.170278,0.034 -0.304022,-0.003 -0.379382,-0.12665 l -0.04854,-0.24325 c -0.425695,0.0849 -0.654297,0.0167 -0.700408,-0.21436 l -0.146063,0.28208 c 0.02673,0.0705 0.1775,0.129 0.43774,0.1656 l 0.126423,0.12653 0.04854,0.24326 c 0.450013,-0.0898 0.736924,0.14384 0.846133,0.69114 l -0.04865,0.01 -0.457265,-0.01 -0.0973,0.0194 0.0097,0.0486 c 0.02426,0.12164 0.109348,0.23112 0.27226,0.35038 l 0.02912,0.14595 -0.03894,0.0584 0.0097,0.0486 c 0.35271,-0.0703 0.542438,-0.0703 0.554569,-0.009 0.04611,0.23109 -0.116942,0.42803 -0.48673,0.603 l 0.01931,0.0968 0.369889,-0.17445 0.0973,-0.0194 0.05836,0.0389 0.04866,-0.01 -0.01953,0.15566 0.330167,1.40115 c 0.04357,0.4719 -0.107452,0.72914 -0.448,0.79709 l 0.0097,0.0487 c 0.316228,-0.0632 0.501062,-0.0241 0.525334,0.0975 0.04126,0.20677 -0.05859,0.46697 -0.301949,0.76848 l -0.311216,-0.0385 -0.145951,0.0291 -0.07798,0.1162 0.0097,0.0487 0.04864,-0.01 0.233544,-0.0972 0.05836,0.0389 0.0097,0.0486 c -0.124139,0.20183 -0.401482,0.33306 -0.827168,0.41799 l -0.01941,-0.0973 0.03894,-0.0583 -0.0096,-0.0481 c -0.116714,-0.0779 -0.43292,-0.078 -0.963186,-0.0102 l -0.126524,-0.12704 -0.0096,-0.0481 0.185007,-0.34045 -0.233646,0.0967 c -0.216443,-0.0707 -0.345294,-0.20934 -0.388977,-0.42826 -0.01456,-0.0729 0.08047,-0.23053 0.311644,-0.46636 l -0.43774,-0.16559 -0.01941,-0.0973 c -0.01213,-0.0608 0.146011,-0.15558 0.496324,-0.30139 l 0.03894,-0.0583 -0.02912,-0.14595 -0.272487,0.15554 -0.05836,-0.0389 -0.01941,-0.0973 c -0.0097,-0.0486 0.12654,-0.12641 0.40873,-0.23332 l 0.08771,-0.32102 -0.0973,0.0194 c -0.121628,0.0243 -0.250593,0.13851 -0.389316,0.33063 l -0.194601,0.0388 -0.116716,-0.0779 -0.339762,-1.70275 0.03894,-0.0584 -0.0097,-0.0486 c 0.508261,0.20211 0.86577,0.28253 1.060373,0.2437 l 0.145951,-0.0291 c 0.187377,-0.20179 0.279882,-0.37201 0.253184,-0.5058 l -0.03894,0.0583 -0.04865,0.01 c -0.0364,-0.18243 -0.240687,-0.2555 -0.603106,-0.23377 l -0.788226,0.35963 -0.05836,-0.0389 -0.06795,-0.34055 0.03894,-0.0583 -0.0097,-0.0486 0.05836,0.0389 0.243252,-0.0485 c 0.291902,-0.0582 0.423295,-0.16032 0.389315,-0.33061 l 0.194602,-0.0388 c 0.379327,0.25314 0.634652,0.39188 0.787886,0.39925 l 0.321138,-0.16526 -0.0097,-0.0486 c -0.269695,-0.65441 -0.593061,-0.94401 -0.982263,-0.86635 l 0.03883,0.19461 c 0.160539,-0.0193 0.255378,0.0124 0.272375,0.0974 l 0.0097,0.0487 -0.07789,0.11671 -0.486502,0.0971 -0.116717,-0.0779 -0.02912,-0.14594 0.107121,-0.22372 -0.116716,-0.0779 -0.145951,0.0291 -0.350373,0.27226 -0.05836,-0.0389 -0.0097,-0.0487 0.155771,-0.23342 -0.0097,-0.0487 -0.369789,0.17496 -0.05836,-0.0389 0.03894,-0.0583 -0.165141,-0.57409 -0.04854,-0.24325 c -0.05092,-0.31866 2.28e-4,-0.50592 0.146177,-0.53505 -0.204252,-0.13629 -0.316059,-0.31634 -0.359742,-0.53526 l -0.0097,-0.0486 -0.164913,-1.08002 0.04865,-0.01 c 0.08513,-0.017 0.282083,0.14607 0.602992,0.48673 l 0.252953,3.1e-4 -0.252846,-0.25308 -0.01941,-0.0973 c 0.189745,-0.0631 0.277343,-0.1312 0.262779,-0.20419 -0.659125,-0.0708 -1.023855,-0.31421 -1.108798,-0.73991 l -0.0097,-0.0486 0.03894,-0.0584 0.145951,-0.0291 c 0.308803,0.21662 0.527673,0.29942 0.661463,0.27272 l -0.0097,-0.0487 c -0.31369,-0.17768 -0.474144,-0.34803 -0.505693,-0.50614 l -0.272487,0.15555 -0.116716,-0.0779 -0.0193,-0.35025 -0.368884,-1.84872 0.457264,0.01 0.0973,-0.0194 c -0.01456,-0.0729 -0.226152,-0.11929 -0.632342,-0.12677 -0.174735,-0.8757 0.114966,-1.45203 0.866677,-1.74113 z m 6.090999,-1.16479 3.590305,-0.51405 0.720047,-0.19425 0.05836,0.0389 -1.14e-4,0.25296 0.02912,0.14595 c 0.143185,0.7176 0.517627,1.00963 1.13792,0.88586 l 0.05836,0.0389 0.0097,0.0487 -0.126536,0.12643 -0.145951,0.0291 -0.79782,0.058 c -0.189751,0.0631 -0.277344,0.13121 -0.26278,0.2042 0.367254,0.003 0.564279,0.0392 0.573984,0.0878 l 0.05825,0.2919 0.291902,-0.0582 c -0.0072,-0.16295 0.02444,-0.2578 0.09741,-0.27237 l 0.0973,-0.0194 c 0.0973,-0.0194 0.508289,0.13886 1.206212,0.46753 l 0.04865,-0.01 c 0.362507,-0.21145 0.508575,-0.49352 0.438192,-0.84625 l -0.0097,-0.0486 c -0.326022,0.20415 -0.642274,0.3305 -0.934177,0.38874 l -0.04865,0.01 c -0.255417,0.0509 -0.428087,0.01 -0.535041,-0.14617 0.632736,-0.7586 1.007491,-1.16219 1.129117,-1.18647 l 1.05044,0.70098 c 0.24314,0.20442 0.418157,0.44772 0.50558,0.7591 0.267576,-0.0534 0.675968,0.47217 1.225175,1.57667 0.318288,0.77119 0.534477,1.41098 0.631551,1.89749 l -0.992647,0.60277 c 0.01456,0.0729 0.06807,0.0876 0.165366,0.0682 l 0.360079,-0.22361 0.0973,-0.0194 0.116716,0.0779 0.05825,0.2919 c -0.06333,0.1897 -0.170389,0.28694 -0.292015,0.31121 l 0.01941,0.0973 0.155658,0.0195 0.457381,-0.24303 0.01941,0.0973 -0.146063,0.28208 c 0.126474,1.6e-4 0.209161,0.0341 0.223724,0.10711 l 0.04854,0.24325 c 0.436836,2.18927 -0.18422,4.02052 -1.841263,5.47672 -0.649698,0.61022 -2.320938,1.17133 -5.021031,1.7101 -0.418444,0.18465 -0.907398,0.33282 -1.479038,0.44688 l -0.535153,0.10678 c -1.045985,0.20871 -1.615056,0.0187 -1.731546,-0.56507 -0.07297,0.0146 -0.172621,-0.1679 -0.311091,-0.54496 l 0.03894,-0.0584 0.04864,-0.01 c 0.07534,0.12407 0.136131,0.17519 0.184781,0.16548 l 0.0973,-0.0194 c 0.06081,-0.0121 0.08759,-0.0681 0.06818,-0.16536 -0.08256,-0.28706 -0.136018,-0.42815 -0.184668,-0.41845 -0.126511,0.0632 -0.17519,0.13613 -0.155772,0.23344 l -0.0973,0.0194 -0.165254,-0.32113 -0.01941,-0.0973 c -0.03882,-0.19459 -0.02162,-0.61539 0.04922,-1.2745 -0.01941,-0.0973 -0.102095,-0.1314 -0.223724,-0.10711 l -0.0097,-0.0487 0.10712,-0.22372 -0.14595,0.0291 -0.01941,-0.0973 c -0.01445,-0.32594 0.09753,-0.52533 0.340778,-0.57387 l 0.04864,-0.01 c 0.07766,0.3892 0.311092,0.54497 0.700295,0.46731 l 0.04865,-0.01 -0.0097,-0.0486 c -0.289336,-0.2458 -0.440053,-0.43072 -0.466749,-0.56451 -0.01941,-0.0973 0.08034,-0.16779 0.311429,-0.2139 l -0.116715,-0.0779 -0.866112,0.47634 -0.04866,0.01 -0.116716,-0.0779 -0.02912,-0.14595 c -0.01213,-0.0608 0.09979,-0.13373 0.36008,-0.22361 l -0.0097,-0.0486 -0.418325,-0.0683 -0.213451,-1.32327 -1.223256,-5.87698 -0.116489,-0.5838 0.301835,-0.51552 0.457264,0.01 -0.02912,-0.14594 c -0.01456,-0.073 -0.148322,-0.10953 -0.379382,-0.12665 l -0.0097,-0.0487 c 0.68367,-0.43994 1.493768,-0.75334 2.44245,-0.94264 z m -50.820183,10.24162 -0.07789,0.11671 0.01941,0.0973 0.505918,2.2e-4 0.136244,-0.0778 -0.01941,-0.0973 -0.515626,-0.0489 z m 13.743719,-2.74236 c -0.642277,0.33051 -0.929435,0.66603 -0.866337,0.98226 l 0.155546,0.27249 -0.136244,0.0778 0.0097,0.0486 0.14595,-0.0291 c 0.316227,-0.0631 0.554793,-0.51541 0.691377,-1.35205 z m 14.809117,-2.85377 0.126422,0.12653 0.0097,0.0486 c -0.039,0.18483 -0.194714,0.29179 -0.437966,0.34032 l -0.0973,0.0194 -0.02912,-0.14596 c 0.07063,-0.21644 0.209332,-0.3453 0.428259,-0.38897 z m -27.891371,5.86884 0.0097,0.0486 c 0.03155,0.15813 -0.06098,0.39158 -0.263006,0.71011 l 0.01941,0.0973 0.272486,-0.15553 0.04865,-0.01 0.05836,0.0389 0.04866,-0.01 -0.0097,-0.0486 -0.09719,-0.23354 0.126537,-0.12642 0.486503,-0.0971 0.233545,-0.0972 c -0.01941,-0.0973 -0.330735,-0.13636 -0.933952,-0.11716 z m -3.882434,1.07821 -0.03894,0.0584 0.0097,0.0486 c 0.0973,-0.0194 0.211587,0.0463 0.34044,0.185 l 0.01941,0.0973 -0.184894,0.0875 0.0097,0.0486 0.0973,-0.0194 0.57421,-0.4181 c -0.213991,-0.1217 -0.48639,-0.15589 -0.826943,-0.0879 z m 14.862677,-2.96564 c -0.160571,0.0827 -0.22384,0.14583 -0.214128,0.19449 l 0.291901,-0.0582 -1.13e-4,0.25296 0.0973,-0.0194 c 0.291902,-0.0582 0.423295,-0.16032 0.389316,-0.33062 z m -11.933949,2.43184 -0.136244,0.0778 0.0097,0.0487 0.126423,0.12653 -0.184894,0.0875 0.0097,0.0487 0.194601,-0.0388 c 0.170273,-0.0339 0.296816,-0.16038 0.379608,-0.37927 z m 35.782321,-7.13985 -0.06818,0.16537 c 0.145951,-0.0291 0.252903,0.12659 0.340327,0.43797 l 0.233544,-0.0972 0.525333,0.0975 0.04865,-0.01 0.07789,-0.11671 -0.0097,-0.0486 c -0.170277,0.034 -0.284506,-0.15822 -0.369448,-0.58392 l -0.0973,0.0194 -0.126537,0.12642 z m 16.623795,-3.26645 -0.574208,0.4181 0.01941,0.0973 0.145951,-0.0291 c 0.194602,-0.0388 0.364933,-0.19929 0.506144,-0.5057 z m -35.256986,7.23737 c -0.194601,0.0388 -0.364936,0.19929 -0.515851,0.45704 l 0.214016,0.0585 c 0.121624,-0.0242 0.267633,-0.17987 0.457493,-0.49598 z m 22.096846,-4.10558 c -0.267581,0.0534 -0.372219,0.16278 -0.340666,0.32091 l 0.04866,-0.01 0.311316,0.0391 0.0973,-0.0194 -0.06795,-0.34056 z m -28.937241,5.8246 c -0.279742,0.0558 -0.450101,0.27951 -0.525672,0.66135 l 0.04865,-0.01 c 0.145951,-0.0291 0.301665,-0.13606 0.486616,-0.35003 l 0.291902,-0.0582 -0.01941,-0.0973 c -0.03644,-0.0559 -0.121572,-0.10225 -0.282082,-0.14606 z m 22.836308,-4.20255 0.0097,0.0487 0.155545,0.27249 0.136243,-0.0778 0.505806,0.25319 0.145951,-0.0291 0.01964,-0.40862 -0.05836,-0.0389 -0.03894,0.0584 -0.194602,0.0388 z m 5.906105,-1.0773 c -0.131445,0.22858 -0.379608,0.37926 -0.72016,0.44722 l -2.597883,0.4172 c -0.231091,0.0461 -0.313854,0.20174 -0.262892,0.45715 l 0.485599,1.9266 c 0.09222,0.46218 0.03127,0.79051 -0.15611,0.99231 l -0.04865,0.01 c -0.04369,-0.21894 -0.267407,-0.32605 -0.671172,-0.32136 -0.160568,0.0826 -0.209274,0.21881 -0.175299,0.38908 l 0.0097,0.0487 c 0.437853,-0.0874 0.846465,-0.0677 1.225853,0.0589 l 0.135904,0.68111 c 0.02184,0.10946 0.398856,0.0975 1.157788,-0.0287 l 0.535154,-0.10679 c 1.45951,-0.29121 2.42061,-1.0521 2.880868,-2.2948 l -0.01918,-0.60322 c -0.116489,-0.5838 -0.561368,-1.10207 -1.322476,-1.55726 l -0.0097,-0.0487 0.194714,-0.29179 -0.0097,-0.0486 c -0.158115,0.0315 -0.355127,-0.005 -0.583692,-0.13647 z M 74.922714,147.205 c -0.22144,0.22124 -0.510941,0.35489 -0.875819,0.4277 l -1.712469,0.29111 -0.282195,0.10689 c 0.30144,0.36985 0.529848,0.88072 0.660899,1.53752 l 0.07766,0.3892 c 0.135904,0.68109 0.108927,1.17971 -0.05903,1.47881 0.221296,0.0949 0.350146,0.23365 0.388976,0.42825 l 0.03884,0.19461 c 0.04369,0.21893 -0.0026,0.43051 -0.126762,0.63234 0.20916,0.0341 0.330731,0.13635 0.369561,0.33096 0.04611,0.23109 -0.01716,0.35753 -0.175299,0.38908 0.187148,0.30412 0.325652,0.61795 0.388751,0.93419 l 0.06795,0.34054 c 0.07766,0.38921 0.08963,0.82947 0.05779,1.30375 0.177523,0.0658 0.282081,0.14606 0.301497,0.24336 l 0.116377,0.83676 0.204196,0.26278 0.574097,-0.16514 0.875706,-0.17474 c 0.352712,-0.0703 0.671333,-0.0581 0.963186,0.0102 l -0.01953,0.15566 c 0.08748,0.18489 0.216355,0.26035 0.398797,0.22395 l 0.04865,-0.01 0.07789,-0.11672 -0.233432,-0.15577 -0.01941,-0.0973 0.03904,-0.0579 -0.0097,-0.0486 0.311217,0.0386 -0.0096,-0.0481 -0.09719,-0.23355 0.622747,-0.17485 c 0.162964,-0.007 0.257811,0.0244 0.272374,0.0974 l 0.0097,0.0487 c 0.01456,0.0729 -0.02934,0.1065 -0.126638,0.12591 l -0.262565,-0.0482 0.01931,0.0968 0.680992,0.11704 c -0.02661,-0.32351 2.28e-4,-0.50592 0.09753,-0.52533 l 0.389202,-0.0777 -0.01941,-0.0973 c 0.192201,-0.11422 0.28478,-0.2207 0.292116,-0.3107 -0.267578,0.0534 -0.398907,0.029 -0.418325,-0.0683 l -0.0097,-0.0487 0.03894,-0.0583 -0.0097,-0.0486 0.05836,0.0389 0.04864,-0.01 0.330845,-0.1166 c -0.01456,-0.073 -0.09724,-0.10707 -0.223725,-0.10711 l -0.01941,-0.0973 c 0.58911,-1.104 0.75504,-2.30061 0.497791,-3.58985 l -0.08748,-0.1849 0.03894,-0.0583 0.05836,0.0389 0.194601,-0.0388 0.116829,-0.17508 -0.39891,0.029 -0.01941,-0.0973 0.291902,-0.0582 c -0.199397,-0.11197 -0.427865,-0.49637 -0.690247,-1.17754 l 0.321136,-0.16525 -0.03883,-0.1946 c -0.347803,-0.0317 -0.539893,-0.1705 -0.583579,-0.38943 0.02201,-0.26997 0.08045,-0.42075 0.165593,-0.43774 0.172648,0.10463 0.318568,0.13878 0.428033,0.11694 l -0.0097,-0.0487 c -0.03882,-0.1946 -0.179869,-0.26763 -0.398797,-0.22395 l -0.04864,0.01 -0.321137,0.16525 c -0.328112,-0.56688 -0.884905,-1.01224 -1.682556,-1.33365 -0.64205,-0.17541 -1.109025,-0.23399 -1.400926,-0.17575 l -0.184894,0.0875 -0.145951,0.0291 c -0.0973,0.0194 -0.167793,-0.0803 -0.213903,-0.31143 z m -41.513465,8.58695 0.0097,0.0486 0.243025,0.45739 -0.06818,0.16537 c 0.41353,-0.0826 0.754026,-0.024 1.04096,0.1464 l 0.07789,-0.11672 c -0.02912,-0.14594 -0.330704,-0.19959 -0.895007,-0.17552 l -0.05836,-0.0389 0.04876,-0.26267 c -0.03883,-0.1946 -0.17987,-0.26764 -0.398797,-0.22395 z m 34.215576,-6.37195 -0.233657,0.35015 c 0.04373,0.0924 0.150748,0.12168 0.321025,0.0877 0.14598,-0.0924 0.204423,-0.24314 0.165592,-0.43775 l -0.0097,-0.0486 z m -16.789388,3.7042 c -0.369792,0.17494 -0.530413,0.38406 -0.486729,0.60299 l 0.04865,-0.01 c 0.0973,-0.0194 0.209223,-0.0924 0.311431,-0.2139 l 0.311316,0.0391 -0.0097,-0.0487 c -0.02427,-0.12162 0.07063,-0.21644 0.301722,-0.26255 -0.07292,-0.11191 -0.233432,-0.15577 -0.476684,-0.10722 z m 15.981521,-2.93595 0.09708,0.48651 0.116715,0.0779 0.145951,-0.0291 0.04876,-0.26267 c -0.133793,0.0267 -0.199456,0.0145 -0.214016,-0.0585 l 0.165479,-0.18478 -0.01941,-0.0973 z m -33.204065,6.8778 -0.04855,0.0102 0.0097,0.0487 c 0.0973,-0.0194 0.153246,0.007 0.165367,0.0682 l 0.01941,0.0973 -1.97e-4,0.25245 0.554568,-0.009 c 0.13382,-0.09 0.19466,-0.1653 0.204423,-0.24314 z m 32.581206,-6.45 -0.165479,0.18478 0.35026,-0.0193 -0.0097,-0.0487 z M 52.1876,153.56262 c -0.231091,0.0461 -0.372218,0.16277 -0.437966,0.34032 l 0.05836,0.0389 0.145951,-0.0291 c 0.109461,-0.0218 0.23112,-0.10934 0.350373,-0.27226 l 0.116716,0.0779 0.03894,-0.0583 -0.01941,-0.0973 z m -18.351335,4.6229 -0.03894,0.0584 0.0097,0.0486 c 0.194601,-0.0388 0.301606,-0.01 0.321025,0.0877 l 0.01931,0.0968 -0.0973,0.0194 0.0097,0.0487 0.04865,-0.01 0.46719,-0.19386 -0.0097,-0.0486 z m -14.269279,3.15076 c -0.243251,0.0485 -0.355172,0.12144 -0.36008,0.2236 l 0.01941,0.0973 0.0973,-0.0194 0.0097,0.0486 c 0.13382,-0.0899 0.333299,-0.16768 0.613039,-0.2235 l 0.126424,0.12654 0.02912,0.14595 -0.07789,0.11671 -1.303738,0.0578 -0.116829,0.17507 c 0.277199,0.18498 0.639593,0.22649 1.089609,0.1367 0.401363,-0.08 0.749281,-0.30128 1.03159,-0.66113 -0.544749,-0.19482 -0.914421,-0.27283 -1.109024,-0.23399 z m 47.725978,-9.52304 -0.360081,0.22361 c 0.07534,0.12408 0.136131,0.17518 0.184782,0.16548 l 0.0973,-0.0194 c 0.170278,-0.034 0.279766,-0.11905 0.301722,-0.26255 -0.01456,-0.0729 -0.09724,-0.10706 -0.223723,-0.10711 z m -33.116484,7.0632 0.0097,0.0487 c 0.04854,0.24325 0.23332,0.40874 0.554342,0.49644 l 0.07789,-0.11673 0.408623,0.0194 0.03894,-0.0583 -0.03883,-0.1946 -0.904715,-0.22418 z m -10.941641,2.58795 c -0.413563,0.14574 -0.603333,0.27215 -0.583917,0.36945 l -0.0098,0.20431 0.05836,0.0389 0.0973,-0.0194 c -0.0121,-0.12406 0.02198,-0.20674 0.107121,-0.22372 l 0.437853,-0.0874 0.116828,-0.17507 -0.01941,-0.0973 z m 18.452868,-3.22671 c 0.04854,0.24324 0.255186,0.45494 0.632115,0.63267 l 0.243252,-0.0485 -0.0096,-0.30161 c -0.179874,-0.26763 -0.440083,-0.36747 -0.768471,-0.30195 z m 26.246854,-5.2372 c -0.525502,0.28193 -0.761529,0.49343 -0.729981,0.65153 0.05101,0.12895 0.160456,0.17034 0.330732,0.13637 l -0.155545,-0.27249 c 0.231088,-0.0461 0.413586,-0.20899 0.554794,-0.51541 z m -45.8092,9.24175 -0.03894,0.0583 -0.04866,0.01 c 0.09964,0.18247 0.252845,0.25307 0.44745,0.21424 0.250562,-0.0753 0.369791,-0.17494 0.350372,-0.27226 l -0.0097,-0.0487 -0.60322,0.0192 z m 33.359411,-6.60633 -0.291798,0.0587 0.0096,0.0481 0.349921,0.73957 -0.126547,0.37989 0.554466,-0.01 0.03894,-0.0583 -0.02912,-0.14595 z m -30.673931,6.12108 0.0096,0.0481 0.05836,0.0389 0.0097,0.0486 -0.321138,0.16525 0.05825,0.2919 0.924356,-0.18444 -0.03883,-0.1946 -0.05836,-0.0389 c -0.0097,-0.0486 -0.102132,-0.0682 -0.262667,-0.0488 l -0.05836,-0.0389 -0.0096,-0.0481 0.03894,-0.0583 -0.0097,-0.0486 z m -15.9817489,3.44187 -0.01953,0.15565 c 0.05101,0.12893 0.160456,0.17034 0.330732,0.13636 0.158112,-0.0315 0.24328,-0.11177 0.253072,-0.25284 -0.218925,0.0436 -0.411069,0.0314 -0.564277,-0.0392 z m 48.6016839,-9.69777 -0.661792,0.2327 0.02912,0.14594 c 0.01213,0.0608 0.131305,0.0877 0.369676,0.078 l 0.0097,0.0487 -0.06818,0.16537 c 0.771037,-0.002 1.169911,0.0325 1.18691,0.11727 l 0.0097,0.0486 c -0.182441,0.0364 -0.411158,0.22115 -0.700747,0.54452 l 0.252953,3.1e-4 0.525446,-0.15543 0.340552,-0.0679 c -0.03883,-0.19461 -0.0096,-0.30161 0.08771,-0.32103 l 0.44756,-0.0387 -0.01941,-0.0973 0.03894,-0.0583 -0.05826,-0.0384 c -1.179686,0.0456 -1.775669,-0.0256 -1.809645,-0.19591 l 0.272588,-0.15503 -0.0097,-0.0487 c -0.13379,0.0267 -0.209161,-0.0341 -0.243139,-0.20442 z m -35.899252,7.31441 1.04e-4,5.3e-4 0.0097,0.0486 -0.175402,0.38859 0.311318,0.0391 0.729755,-0.14561 -0.02912,-0.14595 c -0.01456,-0.073 -0.306404,-0.1412 -0.846357,-0.18524 z m 2.928717,-0.28033 c -0.182469,0.0996 -0.3309,0.24308 -0.41855,0.43763 l 0.311215,0.0386 0.145951,-0.0291 -0.03882,-0.1946 z m 1.36221,-0.27181 -0.07798,0.11621 0.116716,0.0779 0.04854,0.24326 0.291901,-0.0582 0.116829,-0.17508 -0.0097,-0.0486 c -0.145866,0.0291 -0.306497,-0.0141 -0.486289,-0.15538 z m -0.905043,0.28124 -0.07789,0.11671 c 0.162854,0.24574 0.284423,0.34795 0.369563,0.33096 0.180043,-0.11179 0.248217,-0.27717 0.204534,-0.4961 z m 27.609064,-5.509 -0.03894,0.0583 -0.04865,0.01 c 0.0267,0.13379 0.184781,0.16547 0.476683,0.10722 0.09245,-0.0438 0.150864,-0.13126 0.155772,-0.23343 l -0.05836,-0.0389 z m 20.457465,-4.08199 c -0.401365,0.08 -0.78817,0.23314 -1.177428,0.43728 l 0.05836,0.0389 0.0097,0.0487 0.574097,-0.16514 0.457264,0.01 -0.0097,-0.0486 c 0.03655,-0.13375 0.107121,-0.22372 0.204422,-0.24314 z m -28.669777,6.02417 0.0097,0.0486 0.0973,-0.0194 -0.0097,-0.0486 z m 18.20482,-3.329 c -0.55948,0.11165 -0.80036,0.29883 -0.749396,0.55424 0.574153,-0.29161 0.853946,-0.47393 0.846696,-0.57365 z m -6.558201,1.61213 0.0097,0.0486 c 0.194516,0.15091 0.362224,0.42096 0.515287,0.80777 l 0.04865,-0.01 c 0.0973,-0.0194 0.236027,-0.2115 0.389428,-0.58358 l -0.0097,-0.0486 c -0.194601,0.0388 -0.462123,-0.0342 -0.807414,-0.24359 z m -21.503786,5.04958 -0.02935,0.35997 c 0.24562,0.0901 0.452356,0.11212 0.622634,0.0781 l 0.116828,-0.17507 c -0.07298,0.0146 -0.231034,-0.0803 -0.466863,-0.31154 z m 37.971472,-7.32373 0.0097,0.0486 0.369676,0.078 0.01941,0.0973 -0.243252,0.0485 c -0.189748,0.0631 -0.277343,0.1312 -0.262779,0.20419 l 0.01941,0.0973 c 0.741916,-0.14803 1.089835,-0.36922 1.03159,-0.66112 l -0.0097,-0.0487 -0.35026,0.0193 z m -36.989209,8.19007 -0.05847,0.21401 0.49621,-0.0484 0.05847,-0.21402 z m 33.028665,-6.48922 -0.03894,0.0583 c 0.04369,0.21893 -0.240993,0.44015 -0.827281,0.67095 l 0.106895,0.2822 0.632568,-0.37917 0.330731,0.13637 c -0.01698,-0.0851 0.02929,-0.23349 0.165592,-0.43775 -0.13379,0.0267 -0.218868,-0.0828 -0.272261,-0.35038 z m 12.892225,-2.31953 c -0.367359,0.18714 -0.542545,0.32326 -0.525558,0.4084 l 0.0973,-0.0194 c 0.267575,-0.0534 0.442766,-0.1895 0.525559,-0.40838 z m -46.709342,9.67429 -0.116828,0.17508 c 0.145951,-0.0291 0.296721,0.0293 0.43774,0.16559 -0.03155,-0.15811 0.146063,-0.28208 0.535265,-0.35974 l -0.02912,-0.14595 z m 38.292157,-6.47714 0.0097,0.0486 c 0.05825,0.2919 0.208994,0.41359 0.47657,0.36019 l 0.0973,-0.0194 c -0.03884,-0.19461 -0.21633,-0.32359 -0.534928,-0.39914 z m -3.930969,0.83495 -0.807641,0.26233 0.0097,0.0487 c 0.218929,-0.0437 0.350261,-0.0193 0.369676,0.078 l -0.02935,0.35997 0.04864,-0.01 c 0.182438,-0.0364 0.296841,-0.22363 0.340777,-0.57387 0.170279,-0.034 0.257873,-0.10203 0.262781,-0.20419 z m 0.457154,0.2629 -0.379495,0.12631 0.09719,0.23355 0.0097,0.0486 c 0.01213,0.0608 -0.160625,0.20912 -0.515852,0.45704 l -0.03894,0.0584 0.01941,0.0973 0.04864,-0.01 0.603219,-0.0192 c -0.08979,-0.45002 -0.01428,-0.70537 0.253298,-0.75877 l 0.291901,-0.0582 -0.0097,-0.0486 c -0.04858,-0.11678 -0.17262,-0.16791 -0.379383,-0.12665 z m 6.567796,-1.31052 c -0.07298,0.0146 -0.104642,0.10939 -0.09741,0.27238 l 0.04865,-0.01 0.233544,-0.0972 c 0.206759,-0.0412 0.401252,0.17288 0.583465,0.64238 l 0.04865,-0.01 0.07789,-0.11671 0.291901,-0.0582 0.05836,0.0389 0.136244,-0.0778 -0.0097,-0.0486 c -0.0097,-0.0486 -0.269823,-0.14798 -0.768371,-0.30143 l -0.0097,-0.0487 1.14e-4,-0.25296 -0.252952,-3.2e-4 z m 3.249751,-0.44609 c -0.744374,0.19911 -1.09469,0.3449 -1.07042,0.46653 l 0.0097,0.0486 1.196843,-0.33999 z m -3.697537,0.99073 c -0.206765,0.0412 -0.394116,0.17981 -0.57421,0.41811 l 0.252952,3.1e-4 0.184894,-0.0875 0.04865,-0.01 0.116716,0.0779 0.02912,0.14596 -0.03894,0.0583 0.0097,0.0486 0.651983,-0.28185 -0.0097,-0.0487 c -0.231092,0.0461 -0.359962,-0.0293 -0.398798,-0.22394 z m -2.695409,0.94253 0.01941,0.0973 c 0.43785,-0.0874 0.83916,-0.0409 1.186909,0.11728 l 0.04865,-0.01 c 0.06081,-0.0121 0.08274,-0.0923 0.04876,-0.26267 l 0.03894,-0.0584 0.04865,-0.01 c 0.136182,0.0487 0.320969,0.2142 0.554344,0.49644 l 0.243251,-0.0485 -0.09719,-0.23355 0.321249,-0.41821 c -0.651865,0.0289 -1.354845,0.11857 -2.121086,0.27146 z m -0.369788,0.17496 -0.03905,0.31132 0.04865,-0.01 0.593511,-0.0678 0.06818,-0.16536 -0.04865,0.01 -0.282195,0.10689 c -0.179972,-0.0149 -0.269948,-0.0852 -0.291789,-0.19471 z m 6.441258,-1.18408 c -0.167908,0.17261 -0.338211,0.26984 -0.496323,0.30138 l -0.252952,-3.2e-4 -0.03894,0.0583 0.13613,0.17519 c 0.476798,-0.14572 0.700631,-0.29157 0.67151,-0.43751 z m -6.957901,3.41184 -0.233544,0.0972 0.0097,0.0487 0.185479,-0.037 c 0.04625,-0.0462 0.09198,-0.0908 0.134138,-0.12794 z m -55.098582,11.1127 c -0.635812,0.26433 -0.935357,0.50696 -0.89338,0.71734 l 0.04865,-0.01 c 0.406321,-0.0811 0.696306,-0.27469 0.870923,-0.5869 -0.0085,-0.0409 -0.01781,-0.0787 -0.02619,-0.12072 z m 17.885875,-3.53567 0.01941,0.0973 c 0.08503,0.23597 0.172535,0.35762 0.272261,0.35037 l 0.116829,-0.17508 0.418325,0.0683 0.04865,-0.01 -0.0097,-0.0486 c -0.01941,-0.0973 -0.316117,-0.18985 -0.865773,-0.28253 z m 45.950239,-9.16872 -0.116828,0.17507 c 0.09478,0.15815 0.243136,0.20443 0.43774,0.1656 l 0.145951,-0.0291 z m -10.649572,2.15026 c -0.0079,0.01 -0.01322,0.0195 -0.01946,0.0292 l 0.02432,-0.005 z m 0.890268,-0.10177 c 0.0045,0.0224 0.0045,0.0441 0.0047,0.066 0.09193,0.0301 0.193622,0.0645 0.298217,0.10016 0.07703,-0.0565 0.153828,-0.11319 0.251109,-0.17552 l -0.01941,-0.0973 z m 4.475831,-0.89309 0.02912,0.14596 c 0.316229,-0.0631 0.644529,0.0611 0.982489,0.36042 0.209219,-0.0923 0.318712,-0.17742 0.301723,-0.26256 -0.316229,0.0631 -0.59103,-0.0464 -0.82683,-0.34089 z m 7.589451,-1.51436 c -0.0973,0.0194 -0.214127,0.19449 -0.350485,0.52522 l 0.301496,0.24336 c 0.136245,-0.0778 0.2336,-0.22366 0.321251,-0.41821 l -0.0097,-0.0486 -0.311431,0.21391 -0.05836,-0.0389 -0.0097,-0.0487 0.185007,-0.34044 -0.05836,-0.0389 z m -70.577129,14.285 -0.116828,0.17508 0.0097,0.0487 0.457265,0.01 0.06818,-0.16536 -0.02912,-0.14596 z m 21.211546,-4.23246 c -0.306549,0.175 -0.442818,0.31601 -0.418551,0.43763 l 0.165366,0.0682 0.04865,-0.01 c 0.07786,-0.0535 0.158199,-0.22126 0.253185,-0.5058 z m -6.922964,1.43197 c -0.180044,0.11179 -0.265206,0.19204 -0.253073,0.25285 l 0.0097,0.0486 c 0.124052,-0.0121 0.209161,0.0341 0.23343,0.15578 l 0.0973,-0.0194 c 0.0973,-0.0194 0.197083,-0.15314 0.2726,-0.4085 l -0.0973,0.0194 -0.26278,0.2042 -0.05836,-0.0389 -0.0097,-0.0486 c -0.01213,-0.0608 0.04139,-0.10944 0.175187,-0.13614 l -0.0097,-0.0486 z m 44.13708,-8.7616 c -0.05048,0.0663 -0.119032,0.13107 -0.210886,0.19489 0.06387,0.0246 0.124054,0.042 0.183208,0.0573 0.03242,-0.0571 0.08995,-0.12139 0.160311,-0.18955 -0.04662,-0.0252 -0.09081,-0.046 -0.132633,-0.0626 z m 7.062484,-1.35336 c -0.364878,0.0728 -0.520595,0.17973 -0.496323,0.30138 l 0.155545,0.27249 -0.175299,0.38909 1.702649,-0.0868 0.194601,-0.0388 -0.05825,-0.2919 c -0.01456,-0.073 -0.10941,-0.10463 -0.272374,-0.0974 l -0.515739,0.20408 -0.05836,-0.0389 -0.0097,-0.0487 0.03894,-0.0583 -0.13613,-0.17519 -0.515739,0.20408 -0.126423,-0.12653 c -0.01213,-0.0608 0.07789,-0.11671 0.272487,-0.15555 0.204368,-0.11665 0.31143,-0.2139 0.301722,-0.26255 l -0.0097,-0.0486 z m -8.383095,1.75176 0.120851,0.80109 0.112718,-0.0425 -0.0046,-0.0233 0.03213,0.0131 0.113828,-0.0422 -0.0097,-0.0486 -0.0621,-0.0525 -0.09356,0.0328 -0.05836,-0.0389 -0.02912,-0.14594 -0.0097,-0.0487 7.37e-4,-0.004 c -0.02957,-0.15359 -0.05085,-0.28809 -0.06124,-0.40196 z m -56.501945,11.39746 c 0.02427,0.12163 -1.15e-4,0.25298 -0.06829,0.41833 l 0.05836,0.0389 0.04865,-0.01 0.26278,-0.2042 0.05836,0.0389 0.05825,0.29191 -0.06818,0.16536 0.0097,0.0487 c 0.267577,-0.0534 0.372298,-0.35252 0.321476,-0.92413 z m 61.965907,-12.31382 -1.14e-4,0.25296 c 0.42549,0.35774 0.758652,0.50626 1.001904,0.45772 0.243251,-0.0485 0.379551,-0.25279 0.379721,-0.63223 l -0.145951,0.0291 z m -2.838587,0.66073 c -0.224036,0.1068 -0.329802,0.19312 -0.314089,0.27186 l 0.0097,0.0487 0.04865,-0.01 0.272488,-0.15555 0.01923,-0.003 -0.03867,-0.0934 z m -59.535947,11.88694 c -0.267579,0.0534 -0.360079,0.22362 -0.301835,0.51551 l 0.04865,-0.01 c 0.218929,-0.0437 0.311432,-0.2139 0.253185,-0.5058 z m 58.348155,-11.15565 c 0.0495,0.0585 0.100027,0.10526 0.151346,0.14054 l 0.08007,-0.016 0.500968,-0.0325 c 0.04983,-0.0376 0.104656,-0.0838 0.164647,-0.13878 z m -37.234135,7.44852 -0.116829,0.17507 c 0.01456,0.0729 0.199399,0.11197 0.573984,0.0878 0.150831,-0.068 0.226266,-0.13365 0.214129,-0.19448 l -0.0097,-0.0487 c -0.01941,-0.0973 -0.211563,-0.10955 -0.564277,-0.0392 z"
       id="rect1167"
       inkscape:connector-curvature="0"
       inkscape:export-xdpi="96"
       inkscape:export-ydpi="96" />
    <text
       xml:space="preserve"
       style="font-style:normal;font-variant:normal;font-weight:normal;font-stretch:normal;font-size:21.93253899px;line-height:1.25;font-family:'Old Stamper';-inkscape-font-specification:'Old Stamper';letter-spacing:0px;word-spacing:0px;fill:#dc322f;fill-opacity:1;stroke:none;stroke-width:0.22846393"
       x="58.000347"
       y="184.17093"
       id="text1208"
       transform="matrix(0.85787323,0.0882702,-0.13182769,1.1521091,0,0)"
       inkscape:export-xdpi="96"
       inkscape:export-ydpi="96"><tspan
         sodipodi:role="line"
         id="tspan1206"
         x="58.000347"
         y="184.17093"
         style="fill:#dc322f;fill-opacity:1;stroke-width:0.22846393">[Unqualified]</tspan></text>
  </g>
</svg>
